<svg width="614" height="100" viewBox="0 0 614 100" fill="none" xmlns="http://www.w3.org/2000/svg">
<mask id="path-1-outside-1_59_4949" maskUnits="userSpaceOnUse" x="0.424988" y="0.75" width="614" height="99" fill="black">
<rect fill="white" x="0.424988" y="0.75" width="614" height="99"/>
<path d="M28.85 70.2C23.2 70.2 19.05 68.775 16.4 65.925C13.75 63.075 12.425 58.35 12.425 51.75C12.425 46.5 13.3 40.85 15.05 34.8C16.85 28.75 19.7 23.575 23.6 19.275C27.55 14.925 32.55 12.75 38.6 12.75C42.35 12.75 45.375 13.575 47.675 15.225C49.975 16.875 51.125 19.4 51.125 22.8C51.125 24.95 50.7 26.65 49.85 27.9C49 29.1 47.675 29.7 45.875 29.7C44.075 29.7 42.65 29.05 41.6 27.75C42.5 27.3 43.3 26.4 44 25.05C44.7 23.7 45.05 22.3 45.05 20.85C45.05 19.5 44.675 18.4 43.925 17.55C43.225 16.7 42.075 16.275 40.475 16.275C37.825 16.275 35.3 18.1 32.9 21.75C30.5 25.35 28.55 29.9 27.05 35.4C25.6 40.9 24.875 46.2 24.875 51.3C24.875 55.1 25.525 58 26.825 60C28.125 62 30.475 63 33.875 63C36.825 63 39.55 62.35 42.05 61.05C44.55 59.75 46.7 57.9 48.5 55.5L50.225 56.25C48.975 59.4 47.125 62.025 44.675 64.125C42.225 66.225 39.6 67.775 36.8 68.775C34 69.725 31.35 70.2 28.85 70.2Z"/>
<path d="M75.3553 69.45C72.3053 69.45 70.0553 68.65 68.6053 67.05C67.2053 65.4 66.5053 63.375 66.5053 60.975C66.5053 59.925 66.6303 58.75 66.8803 57.45C67.1303 56.1 67.3803 54.8 67.6303 53.55C67.9303 52.3 68.1303 51.5 68.2303 51.15C68.6303 49.4 69.0053 47.675 69.3553 45.975C69.7053 44.275 69.8803 42.9 69.8803 41.85C69.8803 39.3 68.9803 38.025 67.1803 38.025C65.8803 38.025 64.7303 38.675 63.7303 39.975C62.7303 41.225 61.9303 42.875 61.3303 44.925L56.2303 69H45.4303L56.3053 18L67.4053 16.5L63.3553 35.4C65.8553 32.6 68.7803 31.2 72.1303 31.2C74.6803 31.2 76.7053 31.9 78.2053 33.3C79.7053 34.7 80.4553 36.825 80.4553 39.675C80.4553 41.125 80.2803 42.75 79.9303 44.55C79.5803 46.3 79.0803 48.45 78.4303 51C78.0303 52.55 77.6553 54.075 77.3053 55.575C77.0053 57.025 76.8553 58.175 76.8553 59.025C76.8553 60.025 77.0803 60.8 77.5303 61.35C77.9803 61.9 78.7553 62.175 79.8553 62.175C81.3553 62.175 82.5553 61.65 83.4553 60.6C84.3553 59.5 85.2553 57.825 86.1553 55.575H89.3053C87.4553 61.075 85.3053 64.775 82.8553 66.675C80.4553 68.525 77.9553 69.45 75.3553 69.45Z"/>
<path d="M97.0965 69.3C93.3965 69.3 90.4715 68.35 88.3215 66.45C86.1715 64.55 85.0965 61.55 85.0965 57.45C85.0965 54.05 85.7965 50.275 87.1965 46.125C88.5965 41.975 90.8465 38.4 93.9465 35.4C97.0465 32.35 100.946 30.825 105.646 30.825C112.046 30.825 115.246 34.825 115.246 42.825V42.9C115.396 42.95 115.671 42.975 116.071 42.975C117.721 42.975 119.621 42.55 121.771 41.7C123.921 40.8 125.871 39.725 127.621 38.475L128.296 40.5C126.846 42.05 124.946 43.375 122.596 44.475C120.296 45.525 117.771 46.275 115.021 46.725C114.621 51.275 113.596 55.25 111.946 58.65C110.296 62.05 108.171 64.675 105.571 66.525C102.971 68.375 100.146 69.3 97.0965 69.3ZM100.096 62.55C101.296 62.55 102.496 61.875 103.696 60.525C104.896 59.125 105.946 57.25 106.846 54.9C107.746 52.5 108.396 49.85 108.796 46.95C107.446 46.65 106.771 45.6 106.771 43.8C106.771 41.75 107.546 40.4 109.096 39.75C108.996 38.1 108.746 36.975 108.346 36.375C107.946 35.725 107.246 35.4 106.246 35.4C104.596 35.4 102.996 36.6 101.446 39C99.8965 41.4 98.6465 44.275 97.6965 47.625C96.7465 50.975 96.2715 53.925 96.2715 56.475C96.2715 58.875 96.5465 60.5 97.0965 61.35C97.6465 62.15 98.6465 62.55 100.096 62.55Z"/>
<path d="M159.755 69.45C155.755 69.45 153.005 68.5 151.505 66.6C150.055 64.7 149.33 62.325 149.33 59.475C149.33 57.375 149.88 55.675 150.98 54.375C152.08 53.025 153.33 52.35 154.73 52.35C157.33 52.35 158.63 53.4 158.63 55.5C158.63 56.4 158.28 57.2 157.58 57.9C156.88 58.55 156.03 58.875 155.03 58.875C153.98 58.875 153.305 58.55 153.005 57.9C153.005 59.7 153.355 61.1 154.055 62.1C154.805 63.05 155.905 63.525 157.355 63.525C159.055 63.525 160.255 63.025 160.955 62.025C161.705 60.975 162.08 59.15 162.08 56.55C162.08 55.05 161.93 53.15 161.63 50.85C161.13 46.05 160.73 41.15 160.43 36.15C156.88 41.6 152.68 45.05 147.83 46.5C147.53 51.1 146.555 55.125 144.905 58.575C143.255 62.025 141.13 64.675 138.53 66.525C135.98 68.375 133.155 69.3 130.055 69.3C126.355 69.3 123.43 68.35 121.28 66.45C119.13 64.55 118.055 61.55 118.055 57.45C118.055 54 118.73 50.225 120.08 46.125C121.43 41.975 123.63 38.4 126.68 35.4C129.73 32.35 133.63 30.825 138.38 30.825C144.73 30.825 147.93 34.75 147.98 42.6C151.68 42.4 155.755 38.425 160.205 30.675L171.305 29.175C171.555 35.575 171.98 42.5 172.58 49.95C172.83 52.95 172.955 55.125 172.955 56.475C172.955 57.475 172.88 58.4 172.73 59.25C174.23 58.4 176.005 57.175 178.055 55.575H181.205C178.455 58.775 174.98 61.7 170.78 64.35C169.53 66.15 167.93 67.45 165.98 68.25C164.08 69.05 162.005 69.45 159.755 69.45ZM133.055 62.55C134.905 62.55 136.63 61.075 138.23 58.125C139.83 55.125 140.93 51.425 141.53 47.025C140.33 46.575 139.73 45.45 139.73 43.65C139.73 41.7 140.43 40.4 141.83 39.75C141.73 38.15 141.455 37.025 141.005 36.375C140.605 35.725 139.93 35.4 138.98 35.4C137.33 35.4 135.755 36.6 134.255 39C132.755 41.35 131.53 44.225 130.58 47.625C129.68 50.975 129.23 53.925 129.23 56.475C129.23 58.875 129.505 60.5 130.055 61.35C130.605 62.15 131.605 62.55 133.055 62.55Z"/>
<path d="M188.64 69.45C184.99 69.45 182.14 68.5 180.09 66.6C178.04 64.65 177.015 61.625 177.015 57.525C177.015 54.075 177.69 50.275 179.04 46.125C180.39 41.975 182.59 38.4 185.64 35.4C188.69 32.35 192.565 30.825 197.265 30.825C202.765 30.825 205.515 33.225 205.515 38.025C205.515 40.825 204.715 43.4 203.115 45.75C201.515 48.1 199.39 50 196.74 51.45C194.09 52.85 191.265 53.65 188.265 53.85C188.165 54.95 188.115 55.7 188.115 56.1C188.115 60.25 189.665 62.325 192.765 62.325C194.165 62.325 195.665 61.95 197.265 61.2C198.865 60.45 200.315 59.5 201.615 58.35C200.265 65.75 195.94 69.45 188.64 69.45ZM188.79 50.25C190.69 50.2 192.465 49.575 194.115 48.375C195.815 47.175 197.165 45.65 198.165 43.8C199.215 41.9 199.74 39.925 199.74 37.875C199.74 35.825 199.115 34.8 197.865 34.8C196.115 34.8 194.365 36.4 192.615 39.6C190.915 42.75 189.64 46.3 188.79 50.25Z"/>
<path d="M233.491 87.75C231.091 87.75 229.091 87.125 227.491 85.875C225.891 84.625 225.091 82.825 225.091 80.475C225.091 77.625 226.241 75.325 228.541 73.575C230.841 71.875 233.766 70.45 237.316 69.3L238.216 65.25C236.766 66.85 235.291 67.95 233.791 68.55C232.291 69.15 230.766 69.45 229.216 69.45C226.816 69.45 224.866 68.7 223.366 67.2C221.916 65.7 221.191 63.45 221.191 60.45C221.191 59.2 221.391 57.575 221.791 55.575L226.891 31.5H237.691L232.291 57C232.141 57.6 232.066 58.225 232.066 58.875C232.066 61.075 232.816 62.175 234.316 62.175C235.616 62.175 236.766 61.625 237.766 60.525C238.766 59.375 239.566 57.875 240.166 56.025L245.416 31.5H256.216L248.791 66.3C251.191 65.5 253.116 64.3 254.566 62.7C256.016 61.1 257.241 58.725 258.241 55.575H261.391C260.041 60.025 258.216 63.3 255.916 65.4C253.616 67.45 251.016 68.85 248.116 69.6L246.991 75C245.991 79.85 244.266 83.175 241.816 84.975C239.366 86.825 236.591 87.75 233.491 87.75ZM231.766 81.9C232.616 81.9 233.441 81.325 234.241 80.175C235.041 79.025 235.666 77.375 236.116 75.225L236.566 73.05C231.666 74.85 229.216 76.975 229.216 79.425C229.216 80.075 229.441 80.65 229.891 81.15C230.341 81.65 230.966 81.9 231.766 81.9Z"/>
<path d="M269.216 69.3C265.516 69.3 262.591 68.35 260.441 66.45C258.291 64.55 257.216 61.55 257.216 57.45C257.216 54.05 257.916 50.275 259.316 46.125C260.716 41.975 262.966 38.4 266.066 35.4C269.166 32.35 273.066 30.825 277.766 30.825C284.166 30.825 287.366 34.825 287.366 42.825V42.9C287.516 42.95 287.791 42.975 288.191 42.975C289.841 42.975 291.741 42.55 293.891 41.7C296.041 40.8 297.991 39.725 299.741 38.475L300.416 40.5C298.966 42.05 297.066 43.375 294.716 44.475C292.416 45.525 289.891 46.275 287.141 46.725C286.741 51.275 285.716 55.25 284.066 58.65C282.416 62.05 280.291 64.675 277.691 66.525C275.091 68.375 272.266 69.3 269.216 69.3ZM272.216 62.55C273.416 62.55 274.616 61.875 275.816 60.525C277.016 59.125 278.066 57.25 278.966 54.9C279.866 52.5 280.516 49.85 280.916 46.95C279.566 46.65 278.891 45.6 278.891 43.8C278.891 41.75 279.666 40.4 281.216 39.75C281.116 38.1 280.866 36.975 280.466 36.375C280.066 35.725 279.366 35.4 278.366 35.4C276.716 35.4 275.116 36.6 273.566 39C272.016 41.4 270.766 44.275 269.816 47.625C268.866 50.975 268.391 53.925 268.391 56.475C268.391 58.875 268.666 60.5 269.216 61.35C269.766 62.15 270.766 62.55 272.216 62.55Z"/>
<path d="M298.65 69.45C296.25 69.45 294.3 68.7 292.8 67.2C291.35 65.7 290.625 63.45 290.625 60.45C290.625 59.2 290.825 57.575 291.225 55.575L296.325 31.5H307.125L301.725 57C301.575 57.75 301.5 58.45 301.5 59.1C301.5 61.15 302.25 62.175 303.75 62.175C305.15 62.175 306.35 61.6 307.35 60.45C308.35 59.25 309.15 57.625 309.75 55.575L314.85 31.5H325.65L320.25 57C320.05 57.75 319.95 58.55 319.95 59.4C319.95 60.4 320.175 61.125 320.625 61.575C321.125 61.975 321.925 62.175 323.025 62.175C324.425 62.175 325.625 61.575 326.625 60.375C327.675 59.175 328.5 57.575 329.1 55.575H332.25C330.4 60.975 328.1 64.65 325.35 66.6C322.65 68.5 319.925 69.45 317.175 69.45C315.025 69.45 313.3 68.85 312 67.65C310.75 66.45 310 64.675 309.75 62.325C308.05 65.075 306.25 66.95 304.35 67.95C302.5 68.95 300.6 69.45 298.65 69.45Z"/>
<path d="M334.191 31.5H344.991L344.016 36.15C345.716 34.65 347.241 33.5 348.591 32.7C349.991 31.9 351.491 31.5 353.091 31.5C354.691 31.5 355.941 32.05 356.841 33.15C357.791 34.25 358.266 35.575 358.266 37.125C358.266 38.575 357.791 39.85 356.841 40.95C355.891 42.05 354.566 42.6 352.866 42.6C351.766 42.6 351.016 42.35 350.616 41.85C350.266 41.3 349.991 40.525 349.791 39.525C349.641 38.875 349.491 38.4 349.341 38.1C349.191 37.8 348.916 37.65 348.516 37.65C347.466 37.65 346.566 37.875 345.816 38.325C345.116 38.725 344.191 39.45 343.041 40.5L337.041 69H326.241L334.191 31.5Z"/>
<path d="M385.474 27.375C383.824 27.375 382.424 26.8 381.274 25.65C380.124 24.5 379.549 23.1 379.549 21.45C379.549 19.8 380.124 18.4 381.274 17.25C382.424 16.05 383.824 15.45 385.474 15.45C387.124 15.45 388.524 16.05 389.674 17.25C390.874 18.4 391.474 19.8 391.474 21.45C391.474 23.1 390.874 24.5 389.674 25.65C388.524 26.8 387.124 27.375 385.474 27.375ZM366.799 87.75C364.399 87.75 362.399 87.125 360.799 85.875C359.199 84.625 358.399 82.825 358.399 80.475C358.399 75.625 362.499 71.9 370.699 69.3L378.724 31.5H389.524L382.099 66.3C384.499 65.5 386.424 64.3 387.874 62.7C389.324 61.1 390.549 58.725 391.549 55.575H394.699C393.349 60.025 391.524 63.3 389.224 65.4C386.924 67.45 384.324 68.85 381.424 69.6L380.299 75C379.299 79.85 377.574 83.175 375.124 84.975C372.674 86.825 369.899 87.75 366.799 87.75ZM365.074 81.9C365.924 81.9 366.749 81.325 367.549 80.175C368.349 79.025 368.974 77.375 369.424 75.225L369.874 73.05C364.974 74.85 362.524 76.975 362.524 79.425C362.524 80.075 362.749 80.65 363.199 81.15C363.649 81.65 364.274 81.9 365.074 81.9Z"/>
<path d="M400.566 69.45C397.716 69.45 395.341 68.475 393.441 66.525C391.541 64.575 390.591 61.525 390.591 57.375C390.591 53.675 391.316 49.8 392.766 45.75C394.266 41.65 396.466 38.2 399.366 35.4C402.316 32.55 405.816 31.125 409.866 31.125C411.916 31.125 413.441 31.475 414.441 32.175C415.441 32.875 415.941 33.8 415.941 34.95V35.475L416.766 31.5H427.566L422.166 57C421.966 57.75 421.866 58.55 421.866 59.4C421.866 61.55 422.891 62.625 424.941 62.625C426.341 62.625 427.541 61.975 428.541 60.675C429.591 59.375 430.416 57.675 431.016 55.575H434.166C432.316 60.975 430.016 64.65 427.266 66.6C424.566 68.5 421.841 69.45 419.091 69.45C416.991 69.45 415.291 68.875 413.991 67.725C412.741 66.525 411.991 64.8 411.741 62.55C410.291 64.6 408.666 66.275 406.866 67.575C405.116 68.825 403.016 69.45 400.566 69.45ZM405.441 62.175C406.691 62.175 407.916 61.6 409.116 60.45C410.366 59.25 411.216 57.625 411.666 55.575L415.266 38.625C415.266 37.975 415.016 37.35 414.516 36.75C414.016 36.1 413.241 35.775 412.191 35.775C410.191 35.775 408.391 36.95 406.791 39.3C405.191 41.6 403.941 44.4 403.041 47.7C402.141 50.95 401.691 53.825 401.691 56.325C401.691 58.825 402.041 60.425 402.741 61.125C403.491 61.825 404.391 62.175 405.441 62.175Z"/>
<path d="M476.644 69.45C473.594 69.45 471.344 68.65 469.894 67.05C468.494 65.4 467.794 63.375 467.794 60.975C467.794 59.925 467.919 58.75 468.169 57.45C468.419 56.1 468.669 54.8 468.919 53.55C469.219 52.3 469.419 51.5 469.519 51.15C469.919 49.4 470.294 47.675 470.644 45.975C470.994 44.275 471.169 42.9 471.169 41.85C471.169 39.3 470.269 38.025 468.469 38.025C467.169 38.025 466.019 38.675 465.019 39.975C464.019 41.225 463.219 42.875 462.619 44.925L457.519 69H446.719L452.194 43.125C452.344 42.525 452.419 41.9 452.419 41.25C452.419 39.05 451.669 37.95 450.169 37.95C448.769 37.95 447.544 38.6 446.494 39.9C445.494 41.15 444.694 42.825 444.094 44.925L438.994 69H428.194L436.144 31.5H446.944L446.119 35.4C448.669 32.55 451.719 31.125 455.269 31.125C459.669 31.125 462.244 33.275 462.994 37.575C465.744 33.325 469.219 31.2 473.419 31.2C475.969 31.2 477.994 31.9 479.494 33.3C480.994 34.7 481.744 36.825 481.744 39.675C481.744 41.125 481.569 42.75 481.219 44.55C480.869 46.3 480.369 48.45 479.719 51C479.319 52.55 478.944 54.075 478.594 55.575C478.294 57.025 478.144 58.175 478.144 59.025C478.144 60.025 478.369 60.8 478.819 61.35C479.269 61.9 480.044 62.175 481.144 62.175C482.644 62.175 483.844 61.65 484.744 60.6C485.644 59.5 486.544 57.825 487.444 55.575H490.594C488.744 61.075 486.594 64.775 484.144 66.675C481.744 68.525 479.244 69.45 476.644 69.45Z"/>
<path d="M533.04 69.45C529.99 69.45 527.74 68.65 526.29 67.05C524.89 65.4 524.19 63.375 524.19 60.975C524.19 59.925 524.315 58.75 524.565 57.45C524.815 56.1 525.065 54.8 525.315 53.55C525.615 52.3 525.815 51.5 525.915 51.15C526.315 49.4 526.69 47.675 527.04 45.975C527.39 44.275 527.565 42.9 527.565 41.85C527.565 39.3 526.665 38.025 524.865 38.025C523.565 38.025 522.415 38.675 521.415 39.975C520.415 41.225 519.615 42.875 519.015 44.925L513.915 69H503.115L508.59 43.125C508.74 42.525 508.815 41.9 508.815 41.25C508.815 39.05 508.065 37.95 506.565 37.95C505.165 37.95 503.94 38.6 502.89 39.9C501.89 41.15 501.09 42.825 500.49 44.925L495.39 69H484.59L492.54 31.5H503.34L502.515 35.4C505.065 32.55 508.115 31.125 511.665 31.125C516.065 31.125 518.64 33.275 519.39 37.575C522.14 33.325 525.615 31.2 529.815 31.2C532.365 31.2 534.39 31.9 535.89 33.3C537.39 34.7 538.14 36.825 538.14 39.675C538.14 41.125 537.965 42.75 537.615 44.55C537.265 46.3 536.765 48.45 536.115 51C535.715 52.55 535.34 54.075 534.99 55.575C534.69 57.025 534.54 58.175 534.54 59.025C534.54 60.025 534.765 60.8 535.215 61.35C535.665 61.9 536.44 62.175 537.54 62.175C539.04 62.175 540.24 61.65 541.14 60.6C542.04 59.5 542.94 57.825 543.84 55.575H546.99C545.14 61.075 542.99 64.775 540.54 66.675C538.14 68.525 535.64 69.45 533.04 69.45Z"/>
<path d="M554.562 69.45C550.862 69.45 547.987 68.5 545.937 66.6C543.887 64.65 542.862 61.625 542.862 57.525C542.862 54.075 543.537 50.275 544.887 46.125C546.237 41.975 548.437 38.4 551.487 35.4C554.537 32.35 558.412 30.825 563.112 30.825C568.612 30.825 571.362 33.225 571.362 38.025C571.362 40.825 570.562 43.4 568.962 45.75C567.362 48.1 565.237 50 562.587 51.45C559.937 52.85 557.112 53.65 554.112 53.85C554.012 55.35 553.962 56.35 553.962 56.85C553.962 59.3 554.387 60.975 555.237 61.875C556.087 62.725 557.462 63.15 559.362 63.15C562.062 63.15 564.362 62.525 566.262 61.275C568.212 60.025 570.337 58.125 572.637 55.575H575.187C569.637 64.825 562.762 69.45 554.562 69.45ZM554.712 50.25C556.562 50.15 558.312 49.5 559.962 48.3C561.662 47.1 563.012 45.575 564.012 43.725C565.062 41.875 565.587 39.925 565.587 37.875C565.587 35.825 564.962 34.8 563.712 34.8C561.912 34.8 560.137 36.375 558.387 39.525C556.687 42.675 555.462 46.25 554.712 50.25Z"/>
<path d="M577.721 31.5H588.521L587.546 36.15C589.246 34.65 590.771 33.5 592.121 32.7C593.521 31.9 595.021 31.5 596.621 31.5C598.221 31.5 599.471 32.05 600.371 33.15C601.321 34.25 601.796 35.575 601.796 37.125C601.796 38.575 601.321 39.85 600.371 40.95C599.421 42.05 598.096 42.6 596.396 42.6C595.296 42.6 594.546 42.35 594.146 41.85C593.796 41.3 593.521 40.525 593.321 39.525C593.171 38.875 593.021 38.4 592.871 38.1C592.721 37.8 592.446 37.65 592.046 37.65C590.996 37.65 590.096 37.875 589.346 38.325C588.646 38.725 587.721 39.45 586.571 40.5L580.571 69H569.771L577.721 31.5Z"/>
</mask>
<path d="M28.85 70.2C23.2 70.2 19.05 68.775 16.4 65.925C13.75 63.075 12.425 58.35 12.425 51.75C12.425 46.5 13.3 40.85 15.05 34.8C16.85 28.75 19.7 23.575 23.6 19.275C27.55 14.925 32.55 12.75 38.6 12.75C42.35 12.75 45.375 13.575 47.675 15.225C49.975 16.875 51.125 19.4 51.125 22.8C51.125 24.95 50.7 26.65 49.85 27.9C49 29.1 47.675 29.7 45.875 29.7C44.075 29.7 42.65 29.05 41.6 27.75C42.5 27.3 43.3 26.4 44 25.05C44.7 23.7 45.05 22.3 45.05 20.85C45.05 19.5 44.675 18.4 43.925 17.55C43.225 16.7 42.075 16.275 40.475 16.275C37.825 16.275 35.3 18.1 32.9 21.75C30.5 25.35 28.55 29.9 27.05 35.4C25.6 40.9 24.875 46.2 24.875 51.3C24.875 55.1 25.525 58 26.825 60C28.125 62 30.475 63 33.875 63C36.825 63 39.55 62.35 42.05 61.05C44.55 59.75 46.7 57.9 48.5 55.5L50.225 56.25C48.975 59.4 47.125 62.025 44.675 64.125C42.225 66.225 39.6 67.775 36.8 68.775C34 69.725 31.35 70.2 28.85 70.2Z" fill="url(#paint0_linear_59_4949)"/>
<path d="M75.3553 69.45C72.3053 69.45 70.0553 68.65 68.6053 67.05C67.2053 65.4 66.5053 63.375 66.5053 60.975C66.5053 59.925 66.6303 58.75 66.8803 57.45C67.1303 56.1 67.3803 54.8 67.6303 53.55C67.9303 52.3 68.1303 51.5 68.2303 51.15C68.6303 49.4 69.0053 47.675 69.3553 45.975C69.7053 44.275 69.8803 42.9 69.8803 41.85C69.8803 39.3 68.9803 38.025 67.1803 38.025C65.8803 38.025 64.7303 38.675 63.7303 39.975C62.7303 41.225 61.9303 42.875 61.3303 44.925L56.2303 69H45.4303L56.3053 18L67.4053 16.5L63.3553 35.4C65.8553 32.6 68.7803 31.2 72.1303 31.2C74.6803 31.2 76.7053 31.9 78.2053 33.3C79.7053 34.7 80.4553 36.825 80.4553 39.675C80.4553 41.125 80.2803 42.75 79.9303 44.55C79.5803 46.3 79.0803 48.45 78.4303 51C78.0303 52.55 77.6553 54.075 77.3053 55.575C77.0053 57.025 76.8553 58.175 76.8553 59.025C76.8553 60.025 77.0803 60.8 77.5303 61.35C77.9803 61.9 78.7553 62.175 79.8553 62.175C81.3553 62.175 82.5553 61.65 83.4553 60.6C84.3553 59.5 85.2553 57.825 86.1553 55.575H89.3053C87.4553 61.075 85.3053 64.775 82.8553 66.675C80.4553 68.525 77.9553 69.45 75.3553 69.45Z" fill="url(#paint1_linear_59_4949)"/>
<path d="M97.0965 69.3C93.3965 69.3 90.4715 68.35 88.3215 66.45C86.1715 64.55 85.0965 61.55 85.0965 57.45C85.0965 54.05 85.7965 50.275 87.1965 46.125C88.5965 41.975 90.8465 38.4 93.9465 35.4C97.0465 32.35 100.946 30.825 105.646 30.825C112.046 30.825 115.246 34.825 115.246 42.825V42.9C115.396 42.95 115.671 42.975 116.071 42.975C117.721 42.975 119.621 42.55 121.771 41.7C123.921 40.8 125.871 39.725 127.621 38.475L128.296 40.5C126.846 42.05 124.946 43.375 122.596 44.475C120.296 45.525 117.771 46.275 115.021 46.725C114.621 51.275 113.596 55.25 111.946 58.65C110.296 62.05 108.171 64.675 105.571 66.525C102.971 68.375 100.146 69.3 97.0965 69.3ZM100.096 62.55C101.296 62.55 102.496 61.875 103.696 60.525C104.896 59.125 105.946 57.25 106.846 54.9C107.746 52.5 108.396 49.85 108.796 46.95C107.446 46.65 106.771 45.6 106.771 43.8C106.771 41.75 107.546 40.4 109.096 39.75C108.996 38.1 108.746 36.975 108.346 36.375C107.946 35.725 107.246 35.4 106.246 35.4C104.596 35.4 102.996 36.6 101.446 39C99.8965 41.4 98.6465 44.275 97.6965 47.625C96.7465 50.975 96.2715 53.925 96.2715 56.475C96.2715 58.875 96.5465 60.5 97.0965 61.35C97.6465 62.15 98.6465 62.55 100.096 62.55Z" fill="url(#paint2_linear_59_4949)"/>
<path d="M159.755 69.45C155.755 69.45 153.005 68.5 151.505 66.6C150.055 64.7 149.33 62.325 149.33 59.475C149.33 57.375 149.88 55.675 150.98 54.375C152.08 53.025 153.33 52.35 154.73 52.35C157.33 52.35 158.63 53.4 158.63 55.5C158.63 56.4 158.28 57.2 157.58 57.9C156.88 58.55 156.03 58.875 155.03 58.875C153.98 58.875 153.305 58.55 153.005 57.9C153.005 59.7 153.355 61.1 154.055 62.1C154.805 63.05 155.905 63.525 157.355 63.525C159.055 63.525 160.255 63.025 160.955 62.025C161.705 60.975 162.08 59.15 162.08 56.55C162.08 55.05 161.93 53.15 161.63 50.85C161.13 46.05 160.73 41.15 160.43 36.15C156.88 41.6 152.68 45.05 147.83 46.5C147.53 51.1 146.555 55.125 144.905 58.575C143.255 62.025 141.13 64.675 138.53 66.525C135.98 68.375 133.155 69.3 130.055 69.3C126.355 69.3 123.43 68.35 121.28 66.45C119.13 64.55 118.055 61.55 118.055 57.45C118.055 54 118.73 50.225 120.08 46.125C121.43 41.975 123.63 38.4 126.68 35.4C129.73 32.35 133.63 30.825 138.38 30.825C144.73 30.825 147.93 34.75 147.98 42.6C151.68 42.4 155.755 38.425 160.205 30.675L171.305 29.175C171.555 35.575 171.98 42.5 172.58 49.95C172.83 52.95 172.955 55.125 172.955 56.475C172.955 57.475 172.88 58.4 172.73 59.25C174.23 58.4 176.005 57.175 178.055 55.575H181.205C178.455 58.775 174.98 61.7 170.78 64.35C169.53 66.15 167.93 67.45 165.98 68.25C164.08 69.05 162.005 69.45 159.755 69.45ZM133.055 62.55C134.905 62.55 136.63 61.075 138.23 58.125C139.83 55.125 140.93 51.425 141.53 47.025C140.33 46.575 139.73 45.45 139.73 43.65C139.73 41.7 140.43 40.4 141.83 39.75C141.73 38.15 141.455 37.025 141.005 36.375C140.605 35.725 139.93 35.4 138.98 35.4C137.33 35.4 135.755 36.6 134.255 39C132.755 41.35 131.53 44.225 130.58 47.625C129.68 50.975 129.23 53.925 129.23 56.475C129.23 58.875 129.505 60.5 130.055 61.35C130.605 62.15 131.605 62.55 133.055 62.55Z" fill="url(#paint3_linear_59_4949)"/>
<path d="M188.64 69.45C184.99 69.45 182.14 68.5 180.09 66.6C178.04 64.65 177.015 61.625 177.015 57.525C177.015 54.075 177.69 50.275 179.04 46.125C180.39 41.975 182.59 38.4 185.64 35.4C188.69 32.35 192.565 30.825 197.265 30.825C202.765 30.825 205.515 33.225 205.515 38.025C205.515 40.825 204.715 43.4 203.115 45.75C201.515 48.1 199.39 50 196.74 51.45C194.09 52.85 191.265 53.65 188.265 53.85C188.165 54.95 188.115 55.7 188.115 56.1C188.115 60.25 189.665 62.325 192.765 62.325C194.165 62.325 195.665 61.95 197.265 61.2C198.865 60.45 200.315 59.5 201.615 58.35C200.265 65.75 195.94 69.45 188.64 69.45ZM188.79 50.25C190.69 50.2 192.465 49.575 194.115 48.375C195.815 47.175 197.165 45.65 198.165 43.8C199.215 41.9 199.74 39.925 199.74 37.875C199.74 35.825 199.115 34.8 197.865 34.8C196.115 34.8 194.365 36.4 192.615 39.6C190.915 42.75 189.64 46.3 188.79 50.25Z" fill="url(#paint4_linear_59_4949)"/>
<path d="M233.491 87.75C231.091 87.75 229.091 87.125 227.491 85.875C225.891 84.625 225.091 82.825 225.091 80.475C225.091 77.625 226.241 75.325 228.541 73.575C230.841 71.875 233.766 70.45 237.316 69.3L238.216 65.25C236.766 66.85 235.291 67.95 233.791 68.55C232.291 69.15 230.766 69.45 229.216 69.45C226.816 69.45 224.866 68.7 223.366 67.2C221.916 65.7 221.191 63.45 221.191 60.45C221.191 59.2 221.391 57.575 221.791 55.575L226.891 31.5H237.691L232.291 57C232.141 57.6 232.066 58.225 232.066 58.875C232.066 61.075 232.816 62.175 234.316 62.175C235.616 62.175 236.766 61.625 237.766 60.525C238.766 59.375 239.566 57.875 240.166 56.025L245.416 31.5H256.216L248.791 66.3C251.191 65.5 253.116 64.3 254.566 62.7C256.016 61.1 257.241 58.725 258.241 55.575H261.391C260.041 60.025 258.216 63.3 255.916 65.4C253.616 67.45 251.016 68.85 248.116 69.6L246.991 75C245.991 79.85 244.266 83.175 241.816 84.975C239.366 86.825 236.591 87.75 233.491 87.75ZM231.766 81.9C232.616 81.9 233.441 81.325 234.241 80.175C235.041 79.025 235.666 77.375 236.116 75.225L236.566 73.05C231.666 74.85 229.216 76.975 229.216 79.425C229.216 80.075 229.441 80.65 229.891 81.15C230.341 81.65 230.966 81.9 231.766 81.9Z" fill="url(#paint5_linear_59_4949)"/>
<path d="M269.216 69.3C265.516 69.3 262.591 68.35 260.441 66.45C258.291 64.55 257.216 61.55 257.216 57.45C257.216 54.05 257.916 50.275 259.316 46.125C260.716 41.975 262.966 38.4 266.066 35.4C269.166 32.35 273.066 30.825 277.766 30.825C284.166 30.825 287.366 34.825 287.366 42.825V42.9C287.516 42.95 287.791 42.975 288.191 42.975C289.841 42.975 291.741 42.55 293.891 41.7C296.041 40.8 297.991 39.725 299.741 38.475L300.416 40.5C298.966 42.05 297.066 43.375 294.716 44.475C292.416 45.525 289.891 46.275 287.141 46.725C286.741 51.275 285.716 55.25 284.066 58.65C282.416 62.05 280.291 64.675 277.691 66.525C275.091 68.375 272.266 69.3 269.216 69.3ZM272.216 62.55C273.416 62.55 274.616 61.875 275.816 60.525C277.016 59.125 278.066 57.25 278.966 54.9C279.866 52.5 280.516 49.85 280.916 46.95C279.566 46.65 278.891 45.6 278.891 43.8C278.891 41.75 279.666 40.4 281.216 39.75C281.116 38.1 280.866 36.975 280.466 36.375C280.066 35.725 279.366 35.4 278.366 35.4C276.716 35.4 275.116 36.6 273.566 39C272.016 41.4 270.766 44.275 269.816 47.625C268.866 50.975 268.391 53.925 268.391 56.475C268.391 58.875 268.666 60.5 269.216 61.35C269.766 62.15 270.766 62.55 272.216 62.55Z" fill="url(#paint6_linear_59_4949)"/>
<path d="M298.65 69.45C296.25 69.45 294.3 68.7 292.8 67.2C291.35 65.7 290.625 63.45 290.625 60.45C290.625 59.2 290.825 57.575 291.225 55.575L296.325 31.5H307.125L301.725 57C301.575 57.75 301.5 58.45 301.5 59.1C301.5 61.15 302.25 62.175 303.75 62.175C305.15 62.175 306.35 61.6 307.35 60.45C308.35 59.25 309.15 57.625 309.75 55.575L314.85 31.5H325.65L320.25 57C320.05 57.75 319.95 58.55 319.95 59.4C319.95 60.4 320.175 61.125 320.625 61.575C321.125 61.975 321.925 62.175 323.025 62.175C324.425 62.175 325.625 61.575 326.625 60.375C327.675 59.175 328.5 57.575 329.1 55.575H332.25C330.4 60.975 328.1 64.65 325.35 66.6C322.65 68.5 319.925 69.45 317.175 69.45C315.025 69.45 313.3 68.85 312 67.65C310.75 66.45 310 64.675 309.75 62.325C308.05 65.075 306.25 66.95 304.35 67.95C302.5 68.95 300.6 69.45 298.65 69.45Z" fill="url(#paint7_linear_59_4949)"/>
<path d="M334.191 31.5H344.991L344.016 36.15C345.716 34.65 347.241 33.5 348.591 32.7C349.991 31.9 351.491 31.5 353.091 31.5C354.691 31.5 355.941 32.05 356.841 33.15C357.791 34.25 358.266 35.575 358.266 37.125C358.266 38.575 357.791 39.85 356.841 40.95C355.891 42.05 354.566 42.6 352.866 42.6C351.766 42.6 351.016 42.35 350.616 41.85C350.266 41.3 349.991 40.525 349.791 39.525C349.641 38.875 349.491 38.4 349.341 38.1C349.191 37.8 348.916 37.65 348.516 37.65C347.466 37.65 346.566 37.875 345.816 38.325C345.116 38.725 344.191 39.45 343.041 40.5L337.041 69H326.241L334.191 31.5Z" fill="url(#paint8_linear_59_4949)"/>
<path d="M385.474 27.375C383.824 27.375 382.424 26.8 381.274 25.65C380.124 24.5 379.549 23.1 379.549 21.45C379.549 19.8 380.124 18.4 381.274 17.25C382.424 16.05 383.824 15.45 385.474 15.45C387.124 15.45 388.524 16.05 389.674 17.25C390.874 18.4 391.474 19.8 391.474 21.45C391.474 23.1 390.874 24.5 389.674 25.65C388.524 26.8 387.124 27.375 385.474 27.375ZM366.799 87.75C364.399 87.75 362.399 87.125 360.799 85.875C359.199 84.625 358.399 82.825 358.399 80.475C358.399 75.625 362.499 71.9 370.699 69.3L378.724 31.5H389.524L382.099 66.3C384.499 65.5 386.424 64.3 387.874 62.7C389.324 61.1 390.549 58.725 391.549 55.575H394.699C393.349 60.025 391.524 63.3 389.224 65.4C386.924 67.45 384.324 68.85 381.424 69.6L380.299 75C379.299 79.85 377.574 83.175 375.124 84.975C372.674 86.825 369.899 87.75 366.799 87.75ZM365.074 81.9C365.924 81.9 366.749 81.325 367.549 80.175C368.349 79.025 368.974 77.375 369.424 75.225L369.874 73.05C364.974 74.85 362.524 76.975 362.524 79.425C362.524 80.075 362.749 80.65 363.199 81.15C363.649 81.65 364.274 81.9 365.074 81.9Z" fill="url(#paint9_linear_59_4949)"/>
<path d="M400.566 69.45C397.716 69.45 395.341 68.475 393.441 66.525C391.541 64.575 390.591 61.525 390.591 57.375C390.591 53.675 391.316 49.8 392.766 45.75C394.266 41.65 396.466 38.2 399.366 35.4C402.316 32.55 405.816 31.125 409.866 31.125C411.916 31.125 413.441 31.475 414.441 32.175C415.441 32.875 415.941 33.8 415.941 34.95V35.475L416.766 31.5H427.566L422.166 57C421.966 57.75 421.866 58.55 421.866 59.4C421.866 61.55 422.891 62.625 424.941 62.625C426.341 62.625 427.541 61.975 428.541 60.675C429.591 59.375 430.416 57.675 431.016 55.575H434.166C432.316 60.975 430.016 64.65 427.266 66.6C424.566 68.5 421.841 69.45 419.091 69.45C416.991 69.45 415.291 68.875 413.991 67.725C412.741 66.525 411.991 64.8 411.741 62.55C410.291 64.6 408.666 66.275 406.866 67.575C405.116 68.825 403.016 69.45 400.566 69.45ZM405.441 62.175C406.691 62.175 407.916 61.6 409.116 60.45C410.366 59.25 411.216 57.625 411.666 55.575L415.266 38.625C415.266 37.975 415.016 37.35 414.516 36.75C414.016 36.1 413.241 35.775 412.191 35.775C410.191 35.775 408.391 36.95 406.791 39.3C405.191 41.6 403.941 44.4 403.041 47.7C402.141 50.95 401.691 53.825 401.691 56.325C401.691 58.825 402.041 60.425 402.741 61.125C403.491 61.825 404.391 62.175 405.441 62.175Z" fill="url(#paint10_linear_59_4949)"/>
<path d="M476.644 69.45C473.594 69.45 471.344 68.65 469.894 67.05C468.494 65.4 467.794 63.375 467.794 60.975C467.794 59.925 467.919 58.75 468.169 57.45C468.419 56.1 468.669 54.8 468.919 53.55C469.219 52.3 469.419 51.5 469.519 51.15C469.919 49.4 470.294 47.675 470.644 45.975C470.994 44.275 471.169 42.9 471.169 41.85C471.169 39.3 470.269 38.025 468.469 38.025C467.169 38.025 466.019 38.675 465.019 39.975C464.019 41.225 463.219 42.875 462.619 44.925L457.519 69H446.719L452.194 43.125C452.344 42.525 452.419 41.9 452.419 41.25C452.419 39.05 451.669 37.95 450.169 37.95C448.769 37.95 447.544 38.6 446.494 39.9C445.494 41.15 444.694 42.825 444.094 44.925L438.994 69H428.194L436.144 31.5H446.944L446.119 35.4C448.669 32.55 451.719 31.125 455.269 31.125C459.669 31.125 462.244 33.275 462.994 37.575C465.744 33.325 469.219 31.2 473.419 31.2C475.969 31.2 477.994 31.9 479.494 33.3C480.994 34.7 481.744 36.825 481.744 39.675C481.744 41.125 481.569 42.75 481.219 44.55C480.869 46.3 480.369 48.45 479.719 51C479.319 52.55 478.944 54.075 478.594 55.575C478.294 57.025 478.144 58.175 478.144 59.025C478.144 60.025 478.369 60.8 478.819 61.35C479.269 61.9 480.044 62.175 481.144 62.175C482.644 62.175 483.844 61.65 484.744 60.6C485.644 59.5 486.544 57.825 487.444 55.575H490.594C488.744 61.075 486.594 64.775 484.144 66.675C481.744 68.525 479.244 69.45 476.644 69.45Z" fill="url(#paint11_linear_59_4949)"/>
<path d="M533.04 69.45C529.99 69.45 527.74 68.65 526.29 67.05C524.89 65.4 524.19 63.375 524.19 60.975C524.19 59.925 524.315 58.75 524.565 57.45C524.815 56.1 525.065 54.8 525.315 53.55C525.615 52.3 525.815 51.5 525.915 51.15C526.315 49.4 526.69 47.675 527.04 45.975C527.39 44.275 527.565 42.9 527.565 41.85C527.565 39.3 526.665 38.025 524.865 38.025C523.565 38.025 522.415 38.675 521.415 39.975C520.415 41.225 519.615 42.875 519.015 44.925L513.915 69H503.115L508.59 43.125C508.74 42.525 508.815 41.9 508.815 41.25C508.815 39.05 508.065 37.95 506.565 37.95C505.165 37.95 503.94 38.6 502.89 39.9C501.89 41.15 501.09 42.825 500.49 44.925L495.39 69H484.59L492.54 31.5H503.34L502.515 35.4C505.065 32.55 508.115 31.125 511.665 31.125C516.065 31.125 518.64 33.275 519.39 37.575C522.14 33.325 525.615 31.2 529.815 31.2C532.365 31.2 534.39 31.9 535.89 33.3C537.39 34.7 538.14 36.825 538.14 39.675C538.14 41.125 537.965 42.75 537.615 44.55C537.265 46.3 536.765 48.45 536.115 51C535.715 52.55 535.34 54.075 534.99 55.575C534.69 57.025 534.54 58.175 534.54 59.025C534.54 60.025 534.765 60.8 535.215 61.35C535.665 61.9 536.44 62.175 537.54 62.175C539.04 62.175 540.24 61.65 541.14 60.6C542.04 59.5 542.94 57.825 543.84 55.575H546.99C545.14 61.075 542.99 64.775 540.54 66.675C538.14 68.525 535.64 69.45 533.04 69.45Z" fill="url(#paint12_linear_59_4949)"/>
<path d="M554.562 69.45C550.862 69.45 547.987 68.5 545.937 66.6C543.887 64.65 542.862 61.625 542.862 57.525C542.862 54.075 543.537 50.275 544.887 46.125C546.237 41.975 548.437 38.4 551.487 35.4C554.537 32.35 558.412 30.825 563.112 30.825C568.612 30.825 571.362 33.225 571.362 38.025C571.362 40.825 570.562 43.4 568.962 45.75C567.362 48.1 565.237 50 562.587 51.45C559.937 52.85 557.112 53.65 554.112 53.85C554.012 55.35 553.962 56.35 553.962 56.85C553.962 59.3 554.387 60.975 555.237 61.875C556.087 62.725 557.462 63.15 559.362 63.15C562.062 63.15 564.362 62.525 566.262 61.275C568.212 60.025 570.337 58.125 572.637 55.575H575.187C569.637 64.825 562.762 69.45 554.562 69.45ZM554.712 50.25C556.562 50.15 558.312 49.5 559.962 48.3C561.662 47.1 563.012 45.575 564.012 43.725C565.062 41.875 565.587 39.925 565.587 37.875C565.587 35.825 564.962 34.8 563.712 34.8C561.912 34.8 560.137 36.375 558.387 39.525C556.687 42.675 555.462 46.25 554.712 50.25Z" fill="url(#paint13_linear_59_4949)"/>
<path d="M577.721 31.5H588.521L587.546 36.15C589.246 34.65 590.771 33.5 592.121 32.7C593.521 31.9 595.021 31.5 596.621 31.5C598.221 31.5 599.471 32.05 600.371 33.15C601.321 34.25 601.796 35.575 601.796 37.125C601.796 38.575 601.321 39.85 600.371 40.95C599.421 42.05 598.096 42.6 596.396 42.6C595.296 42.6 594.546 42.35 594.146 41.85C593.796 41.3 593.521 40.525 593.321 39.525C593.171 38.875 593.021 38.4 592.871 38.1C592.721 37.8 592.446 37.65 592.046 37.65C590.996 37.65 590.096 37.875 589.346 38.325C588.646 38.725 587.721 39.45 586.571 40.5L580.571 69H569.771L577.721 31.5Z" fill="url(#paint14_linear_59_4949)"/>
<path d="M28.85 70.2C23.2 70.2 19.05 68.775 16.4 65.925C13.75 63.075 12.425 58.35 12.425 51.75C12.425 46.5 13.3 40.85 15.05 34.8C16.85 28.75 19.7 23.575 23.6 19.275C27.55 14.925 32.55 12.75 38.6 12.75C42.35 12.75 45.375 13.575 47.675 15.225C49.975 16.875 51.125 19.4 51.125 22.8C51.125 24.95 50.7 26.65 49.85 27.9C49 29.1 47.675 29.7 45.875 29.7C44.075 29.7 42.65 29.05 41.6 27.75C42.5 27.3 43.3 26.4 44 25.05C44.7 23.7 45.05 22.3 45.05 20.85C45.05 19.5 44.675 18.4 43.925 17.55C43.225 16.7 42.075 16.275 40.475 16.275C37.825 16.275 35.3 18.1 32.9 21.75C30.5 25.35 28.55 29.9 27.05 35.4C25.6 40.9 24.875 46.2 24.875 51.3C24.875 55.1 25.525 58 26.825 60C28.125 62 30.475 63 33.875 63C36.825 63 39.55 62.35 42.05 61.05C44.55 59.75 46.7 57.9 48.5 55.5L50.225 56.25C48.975 59.4 47.125 62.025 44.675 64.125C42.225 66.225 39.6 67.775 36.8 68.775C34 69.725 31.35 70.2 28.85 70.2Z" stroke="white" stroke-width="24" stroke-linejoin="round" mask="url(#path-1-outside-1_59_4949)"/>
<path d="M75.3553 69.45C72.3053 69.45 70.0553 68.65 68.6053 67.05C67.2053 65.4 66.5053 63.375 66.5053 60.975C66.5053 59.925 66.6303 58.75 66.8803 57.45C67.1303 56.1 67.3803 54.8 67.6303 53.55C67.9303 52.3 68.1303 51.5 68.2303 51.15C68.6303 49.4 69.0053 47.675 69.3553 45.975C69.7053 44.275 69.8803 42.9 69.8803 41.85C69.8803 39.3 68.9803 38.025 67.1803 38.025C65.8803 38.025 64.7303 38.675 63.7303 39.975C62.7303 41.225 61.9303 42.875 61.3303 44.925L56.2303 69H45.4303L56.3053 18L67.4053 16.5L63.3553 35.4C65.8553 32.6 68.7803 31.2 72.1303 31.2C74.6803 31.2 76.7053 31.9 78.2053 33.3C79.7053 34.7 80.4553 36.825 80.4553 39.675C80.4553 41.125 80.2803 42.75 79.9303 44.55C79.5803 46.3 79.0803 48.45 78.4303 51C78.0303 52.55 77.6553 54.075 77.3053 55.575C77.0053 57.025 76.8553 58.175 76.8553 59.025C76.8553 60.025 77.0803 60.8 77.5303 61.35C77.9803 61.9 78.7553 62.175 79.8553 62.175C81.3553 62.175 82.5553 61.65 83.4553 60.6C84.3553 59.5 85.2553 57.825 86.1553 55.575H89.3053C87.4553 61.075 85.3053 64.775 82.8553 66.675C80.4553 68.525 77.9553 69.45 75.3553 69.45Z" stroke="white" stroke-width="24" stroke-linejoin="round" mask="url(#path-1-outside-1_59_4949)"/>
<path d="M97.0965 69.3C93.3965 69.3 90.4715 68.35 88.3215 66.45C86.1715 64.55 85.0965 61.55 85.0965 57.45C85.0965 54.05 85.7965 50.275 87.1965 46.125C88.5965 41.975 90.8465 38.4 93.9465 35.4C97.0465 32.35 100.946 30.825 105.646 30.825C112.046 30.825 115.246 34.825 115.246 42.825V42.9C115.396 42.95 115.671 42.975 116.071 42.975C117.721 42.975 119.621 42.55 121.771 41.7C123.921 40.8 125.871 39.725 127.621 38.475L128.296 40.5C126.846 42.05 124.946 43.375 122.596 44.475C120.296 45.525 117.771 46.275 115.021 46.725C114.621 51.275 113.596 55.25 111.946 58.65C110.296 62.05 108.171 64.675 105.571 66.525C102.971 68.375 100.146 69.3 97.0965 69.3ZM100.096 62.55C101.296 62.55 102.496 61.875 103.696 60.525C104.896 59.125 105.946 57.25 106.846 54.9C107.746 52.5 108.396 49.85 108.796 46.95C107.446 46.65 106.771 45.6 106.771 43.8C106.771 41.75 107.546 40.4 109.096 39.75C108.996 38.1 108.746 36.975 108.346 36.375C107.946 35.725 107.246 35.4 106.246 35.4C104.596 35.4 102.996 36.6 101.446 39C99.8965 41.4 98.6465 44.275 97.6965 47.625C96.7465 50.975 96.2715 53.925 96.2715 56.475C96.2715 58.875 96.5465 60.5 97.0965 61.35C97.6465 62.15 98.6465 62.55 100.096 62.55Z" stroke="white" stroke-width="24" stroke-linejoin="round" mask="url(#path-1-outside-1_59_4949)"/>
<path d="M159.755 69.45C155.755 69.45 153.005 68.5 151.505 66.6C150.055 64.7 149.33 62.325 149.33 59.475C149.33 57.375 149.88 55.675 150.98 54.375C152.08 53.025 153.33 52.35 154.73 52.35C157.33 52.35 158.63 53.4 158.63 55.5C158.63 56.4 158.28 57.2 157.58 57.9C156.88 58.55 156.03 58.875 155.03 58.875C153.98 58.875 153.305 58.55 153.005 57.9C153.005 59.7 153.355 61.1 154.055 62.1C154.805 63.05 155.905 63.525 157.355 63.525C159.055 63.525 160.255 63.025 160.955 62.025C161.705 60.975 162.08 59.15 162.08 56.55C162.08 55.05 161.93 53.15 161.63 50.85C161.13 46.05 160.73 41.15 160.43 36.15C156.88 41.6 152.68 45.05 147.83 46.5C147.53 51.1 146.555 55.125 144.905 58.575C143.255 62.025 141.13 64.675 138.53 66.525C135.98 68.375 133.155 69.3 130.055 69.3C126.355 69.3 123.43 68.35 121.28 66.45C119.13 64.55 118.055 61.55 118.055 57.45C118.055 54 118.73 50.225 120.08 46.125C121.43 41.975 123.63 38.4 126.68 35.4C129.73 32.35 133.63 30.825 138.38 30.825C144.73 30.825 147.93 34.75 147.98 42.6C151.68 42.4 155.755 38.425 160.205 30.675L171.305 29.175C171.555 35.575 171.98 42.5 172.58 49.95C172.83 52.95 172.955 55.125 172.955 56.475C172.955 57.475 172.88 58.4 172.73 59.25C174.23 58.4 176.005 57.175 178.055 55.575H181.205C178.455 58.775 174.98 61.7 170.78 64.35C169.53 66.15 167.93 67.45 165.98 68.25C164.08 69.05 162.005 69.45 159.755 69.45ZM133.055 62.55C134.905 62.55 136.63 61.075 138.23 58.125C139.83 55.125 140.93 51.425 141.53 47.025C140.33 46.575 139.73 45.45 139.73 43.65C139.73 41.7 140.43 40.4 141.83 39.75C141.73 38.15 141.455 37.025 141.005 36.375C140.605 35.725 139.93 35.4 138.98 35.4C137.33 35.4 135.755 36.6 134.255 39C132.755 41.35 131.53 44.225 130.58 47.625C129.68 50.975 129.23 53.925 129.23 56.475C129.23 58.875 129.505 60.5 130.055 61.35C130.605 62.15 131.605 62.55 133.055 62.55Z" stroke="white" stroke-width="24" stroke-linejoin="round" mask="url(#path-1-outside-1_59_4949)"/>
<path d="M188.64 69.45C184.99 69.45 182.14 68.5 180.09 66.6C178.04 64.65 177.015 61.625 177.015 57.525C177.015 54.075 177.69 50.275 179.04 46.125C180.39 41.975 182.59 38.4 185.64 35.4C188.69 32.35 192.565 30.825 197.265 30.825C202.765 30.825 205.515 33.225 205.515 38.025C205.515 40.825 204.715 43.4 203.115 45.75C201.515 48.1 199.39 50 196.74 51.45C194.09 52.85 191.265 53.65 188.265 53.85C188.165 54.95 188.115 55.7 188.115 56.1C188.115 60.25 189.665 62.325 192.765 62.325C194.165 62.325 195.665 61.95 197.265 61.2C198.865 60.45 200.315 59.5 201.615 58.35C200.265 65.75 195.94 69.45 188.64 69.45ZM188.79 50.25C190.69 50.2 192.465 49.575 194.115 48.375C195.815 47.175 197.165 45.65 198.165 43.8C199.215 41.9 199.74 39.925 199.74 37.875C199.74 35.825 199.115 34.8 197.865 34.8C196.115 34.8 194.365 36.4 192.615 39.6C190.915 42.75 189.64 46.3 188.79 50.25Z" stroke="white" stroke-width="24" stroke-linejoin="round" mask="url(#path-1-outside-1_59_4949)"/>
<path d="M233.491 87.75C231.091 87.75 229.091 87.125 227.491 85.875C225.891 84.625 225.091 82.825 225.091 80.475C225.091 77.625 226.241 75.325 228.541 73.575C230.841 71.875 233.766 70.45 237.316 69.3L238.216 65.25C236.766 66.85 235.291 67.95 233.791 68.55C232.291 69.15 230.766 69.45 229.216 69.45C226.816 69.45 224.866 68.7 223.366 67.2C221.916 65.7 221.191 63.45 221.191 60.45C221.191 59.2 221.391 57.575 221.791 55.575L226.891 31.5H237.691L232.291 57C232.141 57.6 232.066 58.225 232.066 58.875C232.066 61.075 232.816 62.175 234.316 62.175C235.616 62.175 236.766 61.625 237.766 60.525C238.766 59.375 239.566 57.875 240.166 56.025L245.416 31.5H256.216L248.791 66.3C251.191 65.5 253.116 64.3 254.566 62.7C256.016 61.1 257.241 58.725 258.241 55.575H261.391C260.041 60.025 258.216 63.3 255.916 65.4C253.616 67.45 251.016 68.85 248.116 69.6L246.991 75C245.991 79.85 244.266 83.175 241.816 84.975C239.366 86.825 236.591 87.75 233.491 87.75ZM231.766 81.9C232.616 81.9 233.441 81.325 234.241 80.175C235.041 79.025 235.666 77.375 236.116 75.225L236.566 73.05C231.666 74.85 229.216 76.975 229.216 79.425C229.216 80.075 229.441 80.65 229.891 81.15C230.341 81.65 230.966 81.9 231.766 81.9Z" stroke="white" stroke-width="24" stroke-linejoin="round" mask="url(#path-1-outside-1_59_4949)"/>
<path d="M269.216 69.3C265.516 69.3 262.591 68.35 260.441 66.45C258.291 64.55 257.216 61.55 257.216 57.45C257.216 54.05 257.916 50.275 259.316 46.125C260.716 41.975 262.966 38.4 266.066 35.4C269.166 32.35 273.066 30.825 277.766 30.825C284.166 30.825 287.366 34.825 287.366 42.825V42.9C287.516 42.95 287.791 42.975 288.191 42.975C289.841 42.975 291.741 42.55 293.891 41.7C296.041 40.8 297.991 39.725 299.741 38.475L300.416 40.5C298.966 42.05 297.066 43.375 294.716 44.475C292.416 45.525 289.891 46.275 287.141 46.725C286.741 51.275 285.716 55.25 284.066 58.65C282.416 62.05 280.291 64.675 277.691 66.525C275.091 68.375 272.266 69.3 269.216 69.3ZM272.216 62.55C273.416 62.55 274.616 61.875 275.816 60.525C277.016 59.125 278.066 57.25 278.966 54.9C279.866 52.5 280.516 49.85 280.916 46.95C279.566 46.65 278.891 45.6 278.891 43.8C278.891 41.75 279.666 40.4 281.216 39.75C281.116 38.1 280.866 36.975 280.466 36.375C280.066 35.725 279.366 35.4 278.366 35.4C276.716 35.4 275.116 36.6 273.566 39C272.016 41.4 270.766 44.275 269.816 47.625C268.866 50.975 268.391 53.925 268.391 56.475C268.391 58.875 268.666 60.5 269.216 61.35C269.766 62.15 270.766 62.55 272.216 62.55Z" stroke="white" stroke-width="24" stroke-linejoin="round" mask="url(#path-1-outside-1_59_4949)"/>
<path d="M298.65 69.45C296.25 69.45 294.3 68.7 292.8 67.2C291.35 65.7 290.625 63.45 290.625 60.45C290.625 59.2 290.825 57.575 291.225 55.575L296.325 31.5H307.125L301.725 57C301.575 57.75 301.5 58.45 301.5 59.1C301.5 61.15 302.25 62.175 303.75 62.175C305.15 62.175 306.35 61.6 307.35 60.45C308.35 59.25 309.15 57.625 309.75 55.575L314.85 31.5H325.65L320.25 57C320.05 57.75 319.95 58.55 319.95 59.4C319.95 60.4 320.175 61.125 320.625 61.575C321.125 61.975 321.925 62.175 323.025 62.175C324.425 62.175 325.625 61.575 326.625 60.375C327.675 59.175 328.5 57.575 329.1 55.575H332.25C330.4 60.975 328.1 64.65 325.35 66.6C322.65 68.5 319.925 69.45 317.175 69.45C315.025 69.45 313.3 68.85 312 67.65C310.75 66.45 310 64.675 309.75 62.325C308.05 65.075 306.25 66.95 304.35 67.95C302.5 68.95 300.6 69.45 298.65 69.45Z" stroke="white" stroke-width="24" stroke-linejoin="round" mask="url(#path-1-outside-1_59_4949)"/>
<path d="M334.191 31.5H344.991L344.016 36.15C345.716 34.65 347.241 33.5 348.591 32.7C349.991 31.9 351.491 31.5 353.091 31.5C354.691 31.5 355.941 32.05 356.841 33.15C357.791 34.25 358.266 35.575 358.266 37.125C358.266 38.575 357.791 39.85 356.841 40.95C355.891 42.05 354.566 42.6 352.866 42.6C351.766 42.6 351.016 42.35 350.616 41.85C350.266 41.3 349.991 40.525 349.791 39.525C349.641 38.875 349.491 38.4 349.341 38.1C349.191 37.8 348.916 37.65 348.516 37.65C347.466 37.65 346.566 37.875 345.816 38.325C345.116 38.725 344.191 39.45 343.041 40.5L337.041 69H326.241L334.191 31.5Z" stroke="white" stroke-width="24" stroke-linejoin="round" mask="url(#path-1-outside-1_59_4949)"/>
<path d="M385.474 27.375C383.824 27.375 382.424 26.8 381.274 25.65C380.124 24.5 379.549 23.1 379.549 21.45C379.549 19.8 380.124 18.4 381.274 17.25C382.424 16.05 383.824 15.45 385.474 15.45C387.124 15.45 388.524 16.05 389.674 17.25C390.874 18.4 391.474 19.8 391.474 21.45C391.474 23.1 390.874 24.5 389.674 25.65C388.524 26.8 387.124 27.375 385.474 27.375ZM366.799 87.75C364.399 87.75 362.399 87.125 360.799 85.875C359.199 84.625 358.399 82.825 358.399 80.475C358.399 75.625 362.499 71.9 370.699 69.3L378.724 31.5H389.524L382.099 66.3C384.499 65.5 386.424 64.3 387.874 62.7C389.324 61.1 390.549 58.725 391.549 55.575H394.699C393.349 60.025 391.524 63.3 389.224 65.4C386.924 67.45 384.324 68.85 381.424 69.6L380.299 75C379.299 79.85 377.574 83.175 375.124 84.975C372.674 86.825 369.899 87.75 366.799 87.75ZM365.074 81.9C365.924 81.9 366.749 81.325 367.549 80.175C368.349 79.025 368.974 77.375 369.424 75.225L369.874 73.05C364.974 74.85 362.524 76.975 362.524 79.425C362.524 80.075 362.749 80.65 363.199 81.15C363.649 81.65 364.274 81.9 365.074 81.9Z" stroke="white" stroke-width="24" stroke-linejoin="round" mask="url(#path-1-outside-1_59_4949)"/>
<path d="M400.566 69.45C397.716 69.45 395.341 68.475 393.441 66.525C391.541 64.575 390.591 61.525 390.591 57.375C390.591 53.675 391.316 49.8 392.766 45.75C394.266 41.65 396.466 38.2 399.366 35.4C402.316 32.55 405.816 31.125 409.866 31.125C411.916 31.125 413.441 31.475 414.441 32.175C415.441 32.875 415.941 33.8 415.941 34.95V35.475L416.766 31.5H427.566L422.166 57C421.966 57.75 421.866 58.55 421.866 59.4C421.866 61.55 422.891 62.625 424.941 62.625C426.341 62.625 427.541 61.975 428.541 60.675C429.591 59.375 430.416 57.675 431.016 55.575H434.166C432.316 60.975 430.016 64.65 427.266 66.6C424.566 68.5 421.841 69.45 419.091 69.45C416.991 69.45 415.291 68.875 413.991 67.725C412.741 66.525 411.991 64.8 411.741 62.55C410.291 64.6 408.666 66.275 406.866 67.575C405.116 68.825 403.016 69.45 400.566 69.45ZM405.441 62.175C406.691 62.175 407.916 61.6 409.116 60.45C410.366 59.25 411.216 57.625 411.666 55.575L415.266 38.625C415.266 37.975 415.016 37.35 414.516 36.75C414.016 36.1 413.241 35.775 412.191 35.775C410.191 35.775 408.391 36.95 406.791 39.3C405.191 41.6 403.941 44.4 403.041 47.7C402.141 50.95 401.691 53.825 401.691 56.325C401.691 58.825 402.041 60.425 402.741 61.125C403.491 61.825 404.391 62.175 405.441 62.175Z" stroke="white" stroke-width="24" stroke-linejoin="round" mask="url(#path-1-outside-1_59_4949)"/>
<path d="M476.644 69.45C473.594 69.45 471.344 68.65 469.894 67.05C468.494 65.4 467.794 63.375 467.794 60.975C467.794 59.925 467.919 58.75 468.169 57.45C468.419 56.1 468.669 54.8 468.919 53.55C469.219 52.3 469.419 51.5 469.519 51.15C469.919 49.4 470.294 47.675 470.644 45.975C470.994 44.275 471.169 42.9 471.169 41.85C471.169 39.3 470.269 38.025 468.469 38.025C467.169 38.025 466.019 38.675 465.019 39.975C464.019 41.225 463.219 42.875 462.619 44.925L457.519 69H446.719L452.194 43.125C452.344 42.525 452.419 41.9 452.419 41.25C452.419 39.05 451.669 37.95 450.169 37.95C448.769 37.95 447.544 38.6 446.494 39.9C445.494 41.15 444.694 42.825 444.094 44.925L438.994 69H428.194L436.144 31.5H446.944L446.119 35.4C448.669 32.55 451.719 31.125 455.269 31.125C459.669 31.125 462.244 33.275 462.994 37.575C465.744 33.325 469.219 31.2 473.419 31.2C475.969 31.2 477.994 31.9 479.494 33.3C480.994 34.7 481.744 36.825 481.744 39.675C481.744 41.125 481.569 42.75 481.219 44.55C480.869 46.3 480.369 48.45 479.719 51C479.319 52.55 478.944 54.075 478.594 55.575C478.294 57.025 478.144 58.175 478.144 59.025C478.144 60.025 478.369 60.8 478.819 61.35C479.269 61.9 480.044 62.175 481.144 62.175C482.644 62.175 483.844 61.65 484.744 60.6C485.644 59.5 486.544 57.825 487.444 55.575H490.594C488.744 61.075 486.594 64.775 484.144 66.675C481.744 68.525 479.244 69.45 476.644 69.45Z" stroke="white" stroke-width="24" stroke-linejoin="round" mask="url(#path-1-outside-1_59_4949)"/>
<path d="M533.04 69.45C529.99 69.45 527.74 68.65 526.29 67.05C524.89 65.4 524.19 63.375 524.19 60.975C524.19 59.925 524.315 58.75 524.565 57.45C524.815 56.1 525.065 54.8 525.315 53.55C525.615 52.3 525.815 51.5 525.915 51.15C526.315 49.4 526.69 47.675 527.04 45.975C527.39 44.275 527.565 42.9 527.565 41.85C527.565 39.3 526.665 38.025 524.865 38.025C523.565 38.025 522.415 38.675 521.415 39.975C520.415 41.225 519.615 42.875 519.015 44.925L513.915 69H503.115L508.59 43.125C508.74 42.525 508.815 41.9 508.815 41.25C508.815 39.05 508.065 37.95 506.565 37.95C505.165 37.95 503.94 38.6 502.89 39.9C501.89 41.15 501.09 42.825 500.49 44.925L495.39 69H484.59L492.54 31.5H503.34L502.515 35.4C505.065 32.55 508.115 31.125 511.665 31.125C516.065 31.125 518.64 33.275 519.39 37.575C522.14 33.325 525.615 31.2 529.815 31.2C532.365 31.2 534.39 31.9 535.89 33.3C537.39 34.7 538.14 36.825 538.14 39.675C538.14 41.125 537.965 42.75 537.615 44.55C537.265 46.3 536.765 48.45 536.115 51C535.715 52.55 535.34 54.075 534.99 55.575C534.69 57.025 534.54 58.175 534.54 59.025C534.54 60.025 534.765 60.8 535.215 61.35C535.665 61.9 536.44 62.175 537.54 62.175C539.04 62.175 540.24 61.65 541.14 60.6C542.04 59.5 542.94 57.825 543.84 55.575H546.99C545.14 61.075 542.99 64.775 540.54 66.675C538.14 68.525 535.64 69.45 533.04 69.45Z" stroke="white" stroke-width="24" stroke-linejoin="round" mask="url(#path-1-outside-1_59_4949)"/>
<path d="M554.562 69.45C550.862 69.45 547.987 68.5 545.937 66.6C543.887 64.65 542.862 61.625 542.862 57.525C542.862 54.075 543.537 50.275 544.887 46.125C546.237 41.975 548.437 38.4 551.487 35.4C554.537 32.35 558.412 30.825 563.112 30.825C568.612 30.825 571.362 33.225 571.362 38.025C571.362 40.825 570.562 43.4 568.962 45.75C567.362 48.1 565.237 50 562.587 51.45C559.937 52.85 557.112 53.65 554.112 53.85C554.012 55.35 553.962 56.35 553.962 56.85C553.962 59.3 554.387 60.975 555.237 61.875C556.087 62.725 557.462 63.15 559.362 63.15C562.062 63.15 564.362 62.525 566.262 61.275C568.212 60.025 570.337 58.125 572.637 55.575H575.187C569.637 64.825 562.762 69.45 554.562 69.45ZM554.712 50.25C556.562 50.15 558.312 49.5 559.962 48.3C561.662 47.1 563.012 45.575 564.012 43.725C565.062 41.875 565.587 39.925 565.587 37.875C565.587 35.825 564.962 34.8 563.712 34.8C561.912 34.8 560.137 36.375 558.387 39.525C556.687 42.675 555.462 46.25 554.712 50.25Z" stroke="white" stroke-width="24" stroke-linejoin="round" mask="url(#path-1-outside-1_59_4949)"/>
<path d="M577.721 31.5H588.521L587.546 36.15C589.246 34.65 590.771 33.5 592.121 32.7C593.521 31.9 595.021 31.5 596.621 31.5C598.221 31.5 599.471 32.05 600.371 33.15C601.321 34.25 601.796 35.575 601.796 37.125C601.796 38.575 601.321 39.85 600.371 40.95C599.421 42.05 598.096 42.6 596.396 42.6C595.296 42.6 594.546 42.35 594.146 41.85C593.796 41.3 593.521 40.525 593.321 39.525C593.171 38.875 593.021 38.4 592.871 38.1C592.721 37.8 592.446 37.65 592.046 37.65C590.996 37.65 590.096 37.875 589.346 38.325C588.646 38.725 587.721 39.45 586.571 40.5L580.571 69H569.771L577.721 31.5Z" stroke="white" stroke-width="24" stroke-linejoin="round" mask="url(#path-1-outside-1_59_4949)"/>
<defs>
<linearGradient id="paint0_linear_59_4949" x1="306" y1="-6" x2="306" y2="88" gradientUnits="userSpaceOnUse">
<stop stop-color="#FF9900"/>
<stop offset="1" stop-color="#FF00C7"/>
</linearGradient>
<linearGradient id="paint1_linear_59_4949" x1="306" y1="-6" x2="306" y2="88" gradientUnits="userSpaceOnUse">
<stop stop-color="#FF9900"/>
<stop offset="1" stop-color="#FF00C7"/>
</linearGradient>
<linearGradient id="paint2_linear_59_4949" x1="306" y1="-6" x2="306" y2="88" gradientUnits="userSpaceOnUse">
<stop stop-color="#FF9900"/>
<stop offset="1" stop-color="#FF00C7"/>
</linearGradient>
<linearGradient id="paint3_linear_59_4949" x1="306" y1="-6" x2="306" y2="88" gradientUnits="userSpaceOnUse">
<stop stop-color="#FF9900"/>
<stop offset="1" stop-color="#FF00C7"/>
</linearGradient>
<linearGradient id="paint4_linear_59_4949" x1="306" y1="-6" x2="306" y2="88" gradientUnits="userSpaceOnUse">
<stop stop-color="#FF9900"/>
<stop offset="1" stop-color="#FF00C7"/>
</linearGradient>
<linearGradient id="paint5_linear_59_4949" x1="306" y1="-6" x2="306" y2="88" gradientUnits="userSpaceOnUse">
<stop stop-color="#FF9900"/>
<stop offset="1" stop-color="#FF00C7"/>
</linearGradient>
<linearGradient id="paint6_linear_59_4949" x1="306" y1="-6" x2="306" y2="88" gradientUnits="userSpaceOnUse">
<stop stop-color="#FF9900"/>
<stop offset="1" stop-color="#FF00C7"/>
</linearGradient>
<linearGradient id="paint7_linear_59_4949" x1="306" y1="-6" x2="306" y2="88" gradientUnits="userSpaceOnUse">
<stop stop-color="#FF9900"/>
<stop offset="1" stop-color="#FF00C7"/>
</linearGradient>
<linearGradient id="paint8_linear_59_4949" x1="306" y1="-6" x2="306" y2="88" gradientUnits="userSpaceOnUse">
<stop stop-color="#FF9900"/>
<stop offset="1" stop-color="#FF00C7"/>
</linearGradient>
<linearGradient id="paint9_linear_59_4949" x1="306" y1="-6" x2="306" y2="88" gradientUnits="userSpaceOnUse">
<stop stop-color="#FF9900"/>
<stop offset="1" stop-color="#FF00C7"/>
</linearGradient>
<linearGradient id="paint10_linear_59_4949" x1="306" y1="-6" x2="306" y2="88" gradientUnits="userSpaceOnUse">
<stop stop-color="#FF9900"/>
<stop offset="1" stop-color="#FF00C7"/>
</linearGradient>
<linearGradient id="paint11_linear_59_4949" x1="306" y1="-6" x2="306" y2="88" gradientUnits="userSpaceOnUse">
<stop stop-color="#FF9900"/>
<stop offset="1" stop-color="#FF00C7"/>
</linearGradient>
<linearGradient id="paint12_linear_59_4949" x1="306" y1="-6" x2="306" y2="88" gradientUnits="userSpaceOnUse">
<stop stop-color="#FF9900"/>
<stop offset="1" stop-color="#FF00C7"/>
</linearGradient>
<linearGradient id="paint13_linear_59_4949" x1="306" y1="-6" x2="306" y2="88" gradientUnits="userSpaceOnUse">
<stop stop-color="#FF9900"/>
<stop offset="1" stop-color="#FF00C7"/>
</linearGradient>
<linearGradient id="paint14_linear_59_4949" x1="306" y1="-6" x2="306" y2="88" gradientUnits="userSpaceOnUse">
<stop stop-color="#FF9900"/>
<stop offset="1" stop-color="#FF00C7"/>
</linearGradient>
</defs>
</svg>
