<svg width="30" height="30" viewBox="0 0 30 30" fill="none" xmlns="http://www.w3.org/2000/svg">
<path d="M23.879 1.87901C24.1546 1.58769 24.4857 1.35458 24.8529 1.19343C25.2201 1.03229 25.6158 0.946387 26.0168 0.940811C26.4177 0.935235 26.8157 1.0101 27.1873 1.16097C27.5588 1.31184 27.8963 1.53566 28.1798 1.8192C28.4634 2.10274 28.6872 2.44025 28.8381 2.81177C28.9889 3.18329 29.0638 3.58129 29.0582 3.98224C29.0526 4.38319 28.9667 4.77895 28.8056 5.14613C28.6444 5.51331 28.4113 5.84446 28.12 6.12001L19.33 14.91C19.3184 14.9216 19.3091 14.9354 19.3028 14.9506C19.2965 14.9658 19.2933 14.9821 19.2933 14.9985C19.2933 15.015 19.2965 15.0312 19.3028 15.0464C19.3091 15.0616 19.3184 15.0754 19.33 15.087L28.12 23.877C28.4023 24.1547 28.6269 24.4856 28.7807 24.8505C28.9345 25.2154 29.0146 25.6072 29.0163 26.0032C29.0179 26.3992 28.9412 26.7917 28.7904 27.1579C28.6396 27.5241 28.4179 27.8568 28.1379 28.1369C27.8579 28.4169 27.5252 28.6388 27.159 28.7896C26.7929 28.9405 26.4004 29.0173 26.0044 29.0158C25.6084 29.0142 25.2166 28.9342 24.8517 28.7805C24.4867 28.6268 24.1558 28.4023 23.878 28.12L15.088 19.33C15.0764 19.3184 15.0626 19.3091 15.0474 19.3028C15.0322 19.2965 15.016 19.2933 14.9995 19.2933C14.9831 19.2933 14.9668 19.2965 14.9516 19.3028C14.9364 19.3091 14.9226 19.3184 14.911 19.33L6.12101 28.12C5.8433 28.4023 5.51245 28.6269 5.14752 28.7807C4.78259 28.9346 4.39082 29.0146 3.99481 29.0163C3.59879 29.0179 3.20636 28.9412 2.84016 28.7904C2.47396 28.6396 2.14123 28.4179 1.86117 28.1379C1.58111 27.8579 1.35925 27.5252 1.2084 27.159C1.05755 26.7929 0.980697 26.4004 0.982262 26.0044C0.983828 25.6084 1.06379 25.2166 1.21753 24.8517C1.37127 24.4867 1.59574 24.1558 1.87801 23.878L10.668 15.088C10.6797 15.0764 10.6889 15.0626 10.6952 15.0474C10.7015 15.0322 10.7047 15.016 10.7047 14.9995C10.7047 14.9831 10.7015 14.9668 10.6952 14.9516C10.6889 14.9364 10.6797 14.9226 10.668 14.911L1.87801 6.12101C1.3229 5.55692 1.01318 4.79633 1.01631 4.00492C1.01944 3.21351 1.33516 2.45539 1.89472 1.89571C2.45427 1.33603 3.21231 1.02012 4.00372 1.01681C4.79513 1.01349 5.55579 1.32304 6.12001 1.87801L14.91 10.668C14.9216 10.6797 14.9354 10.6889 14.9506 10.6952C14.9658 10.7015 14.9821 10.7047 14.9985 10.7047C15.015 10.7047 15.0312 10.7015 15.0464 10.6952C15.0616 10.6889 15.0754 10.6797 15.087 10.668L23.877 1.87801L23.879 1.87901Z" fill="#FF00C7"/>
</svg>
