<svg width="656" height="194" viewBox="0 0 656 194" fill="none" xmlns="http://www.w3.org/2000/svg">
<mask id="path-1-outside-1_55_4948" maskUnits="userSpaceOnUse" x="0.850098" y="0.449997" width="656" height="193" fill="black">
<rect fill="white" x="0.850098" y="0.449997" width="656" height="193"/>
<path d="M56.6501 169.05C49.3501 169.05 43.4501 167.15 38.9501 163.35C34.5501 159.65 32.3501 154.75 32.3501 148.65C32.3501 144.85 33.2501 141.35 35.0501 138.15C36.8501 134.95 39.3001 132.45 42.4001 130.65C45.5001 128.75 48.9001 127.8 52.6001 127.8C56.4001 127.8 59.4501 128.75 61.7501 130.65C64.1501 132.55 65.3501 135.05 65.3501 138.15C65.3501 140.55 64.8001 142.45 63.7001 143.85C62.8001 142.65 61.5501 141.7 59.9501 141C58.4501 140.3 56.8501 139.95 55.1501 139.95C52.1501 139.95 49.7001 140.95 47.8001 142.95C45.9001 144.95 44.9501 147.55 44.9501 150.75C44.9501 153.95 45.8501 156.55 47.6501 158.55C49.5501 160.55 51.9001 161.55 54.7001 161.55C58.2001 161.55 61.2001 160 63.7001 156.9C66.2001 153.8 68.1001 149.2 69.4001 143.1L76.9001 109.95H76.3001C73.6001 113.75 70.3001 116.65 66.4001 118.65C62.6001 120.65 58.4001 121.65 53.8001 121.65C48.0001 121.65 42.9001 120.1 38.5001 117C34.1001 113.9 30.7001 109.5 28.3001 103.8C26.0001 98 24.8501 91.3 24.8501 83.7C24.8501 72.7 27.2501 62.7 32.0501 53.7C36.8501 44.6 43.4501 37.45 51.8501 32.25C60.2501 27.05 69.5001 24.45 79.6001 24.45C88.1001 24.45 94.8001 26.3 99.7001 30C104.7 33.7 107.2 38.75 107.2 45.15C107.2 49.45 106.15 52.9 104.05 55.5C101.95 58.1 99.2001 59.4 95.8001 59.4C93.9001 59.4 92.1001 59 90.4001 58.2C88.8001 57.4 87.4501 56.25 86.3501 54.75C88.1501 53.55 89.6501 51.65 90.8501 49.05C92.1501 46.35 92.8001 43.65 92.8001 40.95C92.8001 37.95 91.9001 35.65 90.1001 34.05C88.4001 32.35 85.9501 31.5 82.7501 31.5C76.9501 31.5 71.3501 34.1 65.9501 39.3C60.5501 44.4 56.2001 51.1 52.9001 59.4C49.6001 67.7 47.9501 76.4 47.9501 85.5C47.9501 93 49.1501 98.75 51.5501 102.75C53.9501 106.65 57.4001 108.6 61.9001 108.6C67.3001 108.6 72.0501 105.75 76.1501 100.05C80.3501 94.35 83.7001 86.05 86.2001 75.15L103.9 75.3L92.9501 125.7C89.7501 140.6 85.2001 151.55 79.3001 158.55C73.5001 165.55 65.9501 169.05 56.6501 169.05ZM126.719 138.9C121.019 138.9 116.269 136.95 112.469 133.05C108.669 129.15 106.769 123.05 106.769 114.75C106.769 107.35 108.219 99.6 111.119 91.5C114.119 83.3 118.519 76.4 124.319 70.8C130.219 65.1 137.219 62.25 145.319 62.25C149.419 62.25 152.469 62.95 154.469 64.35C156.469 65.75 157.469 67.6 157.469 69.9V70.95L159.119 63H180.719L169.919 114C169.519 115.5 169.319 117.1 169.319 118.8C169.319 123.1 171.369 125.25 175.469 125.25C178.269 125.25 180.669 123.95 182.669 121.35C184.769 118.75 186.419 115.35 187.619 111.15H193.919C190.219 121.95 185.619 129.3 180.119 133.2C174.719 137 169.269 138.9 163.769 138.9C159.569 138.9 156.169 137.75 153.569 135.45C151.069 133.05 149.569 129.6 149.069 125.1C146.169 129.2 142.919 132.55 139.319 135.15C135.819 137.65 131.619 138.9 126.719 138.9ZM136.469 124.35C138.969 124.35 141.419 123.2 143.819 120.9C146.319 118.5 148.019 115.25 148.919 111.15L156.119 77.25C156.119 75.95 155.619 74.7 154.619 73.5C153.619 72.2 152.069 71.55 149.969 71.55C145.969 71.55 142.369 73.9 139.169 78.6C135.969 83.2 133.469 88.8 131.669 95.4C129.869 101.9 128.969 107.65 128.969 112.65C128.969 117.65 129.669 120.85 131.069 122.25C132.569 123.65 134.369 124.35 136.469 124.35ZM278.874 138.9C272.774 138.9 268.274 137.3 265.374 134.1C262.574 130.8 261.174 126.75 261.174 121.95C261.174 119.85 261.424 117.5 261.924 114.9C262.424 112.2 262.924 109.6 263.424 107.1C264.024 104.6 264.424 103 264.624 102.3C265.424 98.8 266.174 95.35 266.874 91.95C267.574 88.55 267.924 85.8 267.924 83.7C267.924 78.6 266.124 76.05 262.524 76.05C259.924 76.05 257.624 77.35 255.624 79.95C253.624 82.45 252.024 85.75 250.824 89.85L240.624 138H219.024L229.974 86.25C230.274 85.05 230.424 83.8 230.424 82.5C230.424 78.1 228.924 75.9 225.924 75.9C223.124 75.9 220.674 77.2 218.574 79.8C216.574 82.3 214.974 85.65 213.774 89.85L203.574 138H181.974L197.874 63H219.474L217.824 70.8C222.924 65.1 229.024 62.25 236.124 62.25C244.924 62.25 250.074 66.55 251.574 75.15C257.074 66.65 264.024 62.4 272.424 62.4C277.524 62.4 281.574 63.8 284.574 66.6C287.574 69.4 289.074 73.65 289.074 79.35C289.074 82.25 288.724 85.5 288.024 89.1C287.324 92.6 286.324 96.9 285.024 102C284.224 105.1 283.474 108.15 282.774 111.15C282.174 114.05 281.874 116.35 281.874 118.05C281.874 120.05 282.324 121.6 283.224 122.7C284.124 123.8 285.674 124.35 287.874 124.35C290.874 124.35 293.274 123.3 295.074 121.2C296.874 119 298.674 115.65 300.474 111.15H306.774C303.074 122.15 298.774 129.55 293.874 133.35C289.074 137.05 284.074 138.9 278.874 138.9ZM321.617 138.9C314.317 138.9 308.617 137 304.517 133.2C300.417 129.3 298.367 123.25 298.367 115.05C298.367 108.15 299.717 100.55 302.417 92.25C305.117 83.95 309.517 76.8 315.617 70.8C321.717 64.7 329.467 61.65 338.867 61.65C349.867 61.65 355.367 66.45 355.367 76.05C355.367 81.65 353.767 86.8 350.567 91.5C347.367 96.2 343.117 100 337.817 102.9C332.517 105.7 326.867 107.3 320.867 107.7C320.667 109.9 320.567 111.4 320.567 112.2C320.567 120.5 323.667 124.65 329.867 124.65C332.667 124.65 335.667 123.9 338.867 122.4C342.067 120.9 344.967 119 347.567 116.7C344.867 131.5 336.217 138.9 321.617 138.9ZM321.917 100.5C325.717 100.4 329.267 99.15 332.567 96.75C335.967 94.35 338.667 91.3 340.667 87.6C342.767 83.8 343.817 79.85 343.817 75.75C343.817 71.65 342.567 69.6 340.067 69.6C336.567 69.6 333.067 72.8 329.567 79.2C326.167 85.5 323.617 92.6 321.917 100.5ZM409.818 138.6C402.418 138.6 396.568 136.7 392.268 132.9C387.968 129.1 385.818 123.1 385.818 114.9C385.818 108.1 387.218 100.55 390.018 92.25C392.818 83.95 397.318 76.8 403.518 70.8C409.718 64.7 417.518 61.65 426.918 61.65C439.718 61.65 446.118 69.65 446.118 85.65V85.8C446.418 85.9 446.968 85.95 447.768 85.95C451.068 85.95 454.868 85.1 459.168 83.4C463.468 81.6 467.368 79.45 470.868 76.95L472.218 81C469.318 84.1 465.518 86.75 460.818 88.95C456.218 91.05 451.168 92.55 445.668 93.45C444.868 102.55 442.818 110.5 439.518 117.3C436.218 124.1 431.968 129.35 426.768 133.05C421.568 136.75 415.918 138.6 409.818 138.6ZM415.818 125.1C418.218 125.1 420.618 123.75 423.018 121.05C425.418 118.25 427.518 114.5 429.318 109.8C431.118 105 432.418 99.7 433.218 93.9C430.518 93.3 429.168 91.2 429.168 87.6C429.168 83.5 430.718 80.8 433.818 79.5C433.618 76.2 433.118 73.95 432.318 72.75C431.518 71.45 430.118 70.8 428.118 70.8C424.818 70.8 421.618 73.2 418.518 78C415.418 82.8 412.918 88.55 411.018 95.25C409.118 101.95 408.168 107.85 408.168 112.95C408.168 117.75 408.718 121 409.818 122.7C410.918 124.3 412.918 125.1 415.818 125.1ZM470.936 138.9C465.136 138.9 460.586 137.45 457.286 134.55C454.086 131.55 452.486 127.1 452.486 121.2C452.486 118.8 452.736 116.4 453.236 114L464.036 63H485.636L474.836 114C474.336 116.5 474.086 118.3 474.086 119.4C474.086 122.7 475.786 124.35 479.186 124.35C483.786 124.35 488.036 121.45 491.936 115.65C495.936 109.85 499.136 102.95 501.536 94.95C503.936 86.95 505.136 80.05 505.136 74.25C504.936 74.75 504.286 75.15 503.186 75.45C502.086 75.65 501.136 75.75 500.336 75.75C498.636 75.75 497.286 74.95 496.286 73.35C495.386 71.75 494.936 70 494.936 68.1C494.936 65.7 495.686 63.75 497.186 62.25C498.786 60.75 501.136 60 504.236 60C507.536 60 509.936 61.25 511.436 63.75C512.936 66.15 513.686 69.25 513.686 73.05C513.686 82.05 512.136 91.7 509.036 102C505.936 112.2 501.186 120.9 494.786 128.1C488.386 135.3 480.436 138.9 470.936 138.9ZM537.395 138.9C529.995 138.9 524.245 137 520.145 133.2C516.045 129.3 513.995 123.25 513.995 115.05C513.995 108.15 515.345 100.55 518.045 92.25C520.745 83.95 525.145 76.8 531.245 70.8C537.345 64.7 545.095 61.65 554.495 61.65C565.495 61.65 570.995 66.45 570.995 76.05C570.995 81.65 569.395 86.8 566.195 91.5C562.995 96.2 558.745 100 553.445 102.9C548.145 105.7 542.495 107.3 536.495 107.7C536.295 110.7 536.195 112.7 536.195 113.7C536.195 118.6 537.045 121.95 538.745 123.75C540.445 125.45 543.195 126.3 546.995 126.3C552.395 126.3 556.995 125.05 560.795 122.55C564.695 120.05 568.945 116.25 573.545 111.15H578.645C567.545 129.65 553.795 138.9 537.395 138.9ZM537.695 100.5C541.395 100.3 544.895 99 548.195 96.6C551.595 94.2 554.295 91.15 556.295 87.45C558.395 83.75 559.445 79.85 559.445 75.75C559.445 71.65 558.195 69.6 555.695 69.6C552.095 69.6 548.545 72.75 545.045 79.05C541.645 85.35 539.195 92.5 537.695 100.5ZM583.714 63H605.314L603.364 72.3C606.764 69.3 609.814 67 612.514 65.4C615.314 63.8 618.314 63 621.514 63C624.714 63 627.214 64.1 629.014 66.3C630.914 68.5 631.864 71.15 631.864 74.25C631.864 77.15 630.914 79.7 629.014 81.9C627.114 84.1 624.464 85.2 621.064 85.2C618.864 85.2 617.364 84.7 616.564 83.7C615.864 82.6 615.314 81.05 614.914 79.05C614.614 77.75 614.314 76.8 614.014 76.2C613.714 75.6 613.164 75.3 612.364 75.3C610.264 75.3 608.464 75.75 606.964 76.65C605.564 77.45 603.714 78.9 601.414 81L589.414 138H567.814L583.714 63Z"/>
</mask>
<path d="M56.6501 169.05C49.3501 169.05 43.4501 167.15 38.9501 163.35C34.5501 159.65 32.3501 154.75 32.3501 148.65C32.3501 144.85 33.2501 141.35 35.0501 138.15C36.8501 134.95 39.3001 132.45 42.4001 130.65C45.5001 128.75 48.9001 127.8 52.6001 127.8C56.4001 127.8 59.4501 128.75 61.7501 130.65C64.1501 132.55 65.3501 135.05 65.3501 138.15C65.3501 140.55 64.8001 142.45 63.7001 143.85C62.8001 142.65 61.5501 141.7 59.9501 141C58.4501 140.3 56.8501 139.95 55.1501 139.95C52.1501 139.95 49.7001 140.95 47.8001 142.95C45.9001 144.95 44.9501 147.55 44.9501 150.75C44.9501 153.95 45.8501 156.55 47.6501 158.55C49.5501 160.55 51.9001 161.55 54.7001 161.55C58.2001 161.55 61.2001 160 63.7001 156.9C66.2001 153.8 68.1001 149.2 69.4001 143.1L76.9001 109.95H76.3001C73.6001 113.75 70.3001 116.65 66.4001 118.65C62.6001 120.65 58.4001 121.65 53.8001 121.65C48.0001 121.65 42.9001 120.1 38.5001 117C34.1001 113.9 30.7001 109.5 28.3001 103.8C26.0001 98 24.8501 91.3 24.8501 83.7C24.8501 72.7 27.2501 62.7 32.0501 53.7C36.8501 44.6 43.4501 37.45 51.8501 32.25C60.2501 27.05 69.5001 24.45 79.6001 24.45C88.1001 24.45 94.8001 26.3 99.7001 30C104.7 33.7 107.2 38.75 107.2 45.15C107.2 49.45 106.15 52.9 104.05 55.5C101.95 58.1 99.2001 59.4 95.8001 59.4C93.9001 59.4 92.1001 59 90.4001 58.2C88.8001 57.4 87.4501 56.25 86.3501 54.75C88.1501 53.55 89.6501 51.65 90.8501 49.05C92.1501 46.35 92.8001 43.65 92.8001 40.95C92.8001 37.95 91.9001 35.65 90.1001 34.05C88.4001 32.35 85.9501 31.5 82.7501 31.5C76.9501 31.5 71.3501 34.1 65.9501 39.3C60.5501 44.4 56.2001 51.1 52.9001 59.4C49.6001 67.7 47.9501 76.4 47.9501 85.5C47.9501 93 49.1501 98.75 51.5501 102.75C53.9501 106.65 57.4001 108.6 61.9001 108.6C67.3001 108.6 72.0501 105.75 76.1501 100.05C80.3501 94.35 83.7001 86.05 86.2001 75.15L103.9 75.3L92.9501 125.7C89.7501 140.6 85.2001 151.55 79.3001 158.55C73.5001 165.55 65.9501 169.05 56.6501 169.05ZM126.719 138.9C121.019 138.9 116.269 136.95 112.469 133.05C108.669 129.15 106.769 123.05 106.769 114.75C106.769 107.35 108.219 99.6 111.119 91.5C114.119 83.3 118.519 76.4 124.319 70.8C130.219 65.1 137.219 62.25 145.319 62.25C149.419 62.25 152.469 62.95 154.469 64.35C156.469 65.75 157.469 67.6 157.469 69.9V70.95L159.119 63H180.719L169.919 114C169.519 115.5 169.319 117.1 169.319 118.8C169.319 123.1 171.369 125.25 175.469 125.25C178.269 125.25 180.669 123.95 182.669 121.35C184.769 118.75 186.419 115.35 187.619 111.15H193.919C190.219 121.95 185.619 129.3 180.119 133.2C174.719 137 169.269 138.9 163.769 138.9C159.569 138.9 156.169 137.75 153.569 135.45C151.069 133.05 149.569 129.6 149.069 125.1C146.169 129.2 142.919 132.55 139.319 135.15C135.819 137.65 131.619 138.9 126.719 138.9ZM136.469 124.35C138.969 124.35 141.419 123.2 143.819 120.9C146.319 118.5 148.019 115.25 148.919 111.15L156.119 77.25C156.119 75.95 155.619 74.7 154.619 73.5C153.619 72.2 152.069 71.55 149.969 71.55C145.969 71.55 142.369 73.9 139.169 78.6C135.969 83.2 133.469 88.8 131.669 95.4C129.869 101.9 128.969 107.65 128.969 112.65C128.969 117.65 129.669 120.85 131.069 122.25C132.569 123.65 134.369 124.35 136.469 124.35ZM278.874 138.9C272.774 138.9 268.274 137.3 265.374 134.1C262.574 130.8 261.174 126.75 261.174 121.95C261.174 119.85 261.424 117.5 261.924 114.9C262.424 112.2 262.924 109.6 263.424 107.1C264.024 104.6 264.424 103 264.624 102.3C265.424 98.8 266.174 95.35 266.874 91.95C267.574 88.55 267.924 85.8 267.924 83.7C267.924 78.6 266.124 76.05 262.524 76.05C259.924 76.05 257.624 77.35 255.624 79.95C253.624 82.45 252.024 85.75 250.824 89.85L240.624 138H219.024L229.974 86.25C230.274 85.05 230.424 83.8 230.424 82.5C230.424 78.1 228.924 75.9 225.924 75.9C223.124 75.9 220.674 77.2 218.574 79.8C216.574 82.3 214.974 85.65 213.774 89.85L203.574 138H181.974L197.874 63H219.474L217.824 70.8C222.924 65.1 229.024 62.25 236.124 62.25C244.924 62.25 250.074 66.55 251.574 75.15C257.074 66.65 264.024 62.4 272.424 62.4C277.524 62.4 281.574 63.8 284.574 66.6C287.574 69.4 289.074 73.65 289.074 79.35C289.074 82.25 288.724 85.5 288.024 89.1C287.324 92.6 286.324 96.9 285.024 102C284.224 105.1 283.474 108.15 282.774 111.15C282.174 114.05 281.874 116.35 281.874 118.05C281.874 120.05 282.324 121.6 283.224 122.7C284.124 123.8 285.674 124.35 287.874 124.35C290.874 124.35 293.274 123.3 295.074 121.2C296.874 119 298.674 115.65 300.474 111.15H306.774C303.074 122.15 298.774 129.55 293.874 133.35C289.074 137.05 284.074 138.9 278.874 138.9ZM321.617 138.9C314.317 138.9 308.617 137 304.517 133.2C300.417 129.3 298.367 123.25 298.367 115.05C298.367 108.15 299.717 100.55 302.417 92.25C305.117 83.95 309.517 76.8 315.617 70.8C321.717 64.7 329.467 61.65 338.867 61.65C349.867 61.65 355.367 66.45 355.367 76.05C355.367 81.65 353.767 86.8 350.567 91.5C347.367 96.2 343.117 100 337.817 102.9C332.517 105.7 326.867 107.3 320.867 107.7C320.667 109.9 320.567 111.4 320.567 112.2C320.567 120.5 323.667 124.65 329.867 124.65C332.667 124.65 335.667 123.9 338.867 122.4C342.067 120.9 344.967 119 347.567 116.7C344.867 131.5 336.217 138.9 321.617 138.9ZM321.917 100.5C325.717 100.4 329.267 99.15 332.567 96.75C335.967 94.35 338.667 91.3 340.667 87.6C342.767 83.8 343.817 79.85 343.817 75.75C343.817 71.65 342.567 69.6 340.067 69.6C336.567 69.6 333.067 72.8 329.567 79.2C326.167 85.5 323.617 92.6 321.917 100.5ZM409.818 138.6C402.418 138.6 396.568 136.7 392.268 132.9C387.968 129.1 385.818 123.1 385.818 114.9C385.818 108.1 387.218 100.55 390.018 92.25C392.818 83.95 397.318 76.8 403.518 70.8C409.718 64.7 417.518 61.65 426.918 61.65C439.718 61.65 446.118 69.65 446.118 85.65V85.8C446.418 85.9 446.968 85.95 447.768 85.95C451.068 85.95 454.868 85.1 459.168 83.4C463.468 81.6 467.368 79.45 470.868 76.95L472.218 81C469.318 84.1 465.518 86.75 460.818 88.95C456.218 91.05 451.168 92.55 445.668 93.45C444.868 102.55 442.818 110.5 439.518 117.3C436.218 124.1 431.968 129.35 426.768 133.05C421.568 136.75 415.918 138.6 409.818 138.6ZM415.818 125.1C418.218 125.1 420.618 123.75 423.018 121.05C425.418 118.25 427.518 114.5 429.318 109.8C431.118 105 432.418 99.7 433.218 93.9C430.518 93.3 429.168 91.2 429.168 87.6C429.168 83.5 430.718 80.8 433.818 79.5C433.618 76.2 433.118 73.95 432.318 72.75C431.518 71.45 430.118 70.8 428.118 70.8C424.818 70.8 421.618 73.2 418.518 78C415.418 82.8 412.918 88.55 411.018 95.25C409.118 101.95 408.168 107.85 408.168 112.95C408.168 117.75 408.718 121 409.818 122.7C410.918 124.3 412.918 125.1 415.818 125.1ZM470.936 138.9C465.136 138.9 460.586 137.45 457.286 134.55C454.086 131.55 452.486 127.1 452.486 121.2C452.486 118.8 452.736 116.4 453.236 114L464.036 63H485.636L474.836 114C474.336 116.5 474.086 118.3 474.086 119.4C474.086 122.7 475.786 124.35 479.186 124.35C483.786 124.35 488.036 121.45 491.936 115.65C495.936 109.85 499.136 102.95 501.536 94.95C503.936 86.95 505.136 80.05 505.136 74.25C504.936 74.75 504.286 75.15 503.186 75.45C502.086 75.65 501.136 75.75 500.336 75.75C498.636 75.75 497.286 74.95 496.286 73.35C495.386 71.75 494.936 70 494.936 68.1C494.936 65.7 495.686 63.75 497.186 62.25C498.786 60.75 501.136 60 504.236 60C507.536 60 509.936 61.25 511.436 63.75C512.936 66.15 513.686 69.25 513.686 73.05C513.686 82.05 512.136 91.7 509.036 102C505.936 112.2 501.186 120.9 494.786 128.1C488.386 135.3 480.436 138.9 470.936 138.9ZM537.395 138.9C529.995 138.9 524.245 137 520.145 133.2C516.045 129.3 513.995 123.25 513.995 115.05C513.995 108.15 515.345 100.55 518.045 92.25C520.745 83.95 525.145 76.8 531.245 70.8C537.345 64.7 545.095 61.65 554.495 61.65C565.495 61.65 570.995 66.45 570.995 76.05C570.995 81.65 569.395 86.8 566.195 91.5C562.995 96.2 558.745 100 553.445 102.9C548.145 105.7 542.495 107.3 536.495 107.7C536.295 110.7 536.195 112.7 536.195 113.7C536.195 118.6 537.045 121.95 538.745 123.75C540.445 125.45 543.195 126.3 546.995 126.3C552.395 126.3 556.995 125.05 560.795 122.55C564.695 120.05 568.945 116.25 573.545 111.15H578.645C567.545 129.65 553.795 138.9 537.395 138.9ZM537.695 100.5C541.395 100.3 544.895 99 548.195 96.6C551.595 94.2 554.295 91.15 556.295 87.45C558.395 83.75 559.445 79.85 559.445 75.75C559.445 71.65 558.195 69.6 555.695 69.6C552.095 69.6 548.545 72.75 545.045 79.05C541.645 85.35 539.195 92.5 537.695 100.5ZM583.714 63H605.314L603.364 72.3C606.764 69.3 609.814 67 612.514 65.4C615.314 63.8 618.314 63 621.514 63C624.714 63 627.214 64.1 629.014 66.3C630.914 68.5 631.864 71.15 631.864 74.25C631.864 77.15 630.914 79.7 629.014 81.9C627.114 84.1 624.464 85.2 621.064 85.2C618.864 85.2 617.364 84.7 616.564 83.7C615.864 82.6 615.314 81.05 614.914 79.05C614.614 77.75 614.314 76.8 614.014 76.2C613.714 75.6 613.164 75.3 612.364 75.3C610.264 75.3 608.464 75.75 606.964 76.65C605.564 77.45 603.714 78.9 601.414 81L589.414 138H567.814L583.714 63Z" stroke="white" stroke-width="48" stroke-linejoin="round" mask="url(#path-1-outside-1_55_4948)"/>
</svg>
