<svg width="29" height="28" viewBox="0 0 29 28" fill="none" xmlns="http://www.w3.org/2000/svg">
<path d="M6.58323 28V9.10845H0.366768V28H6.58323ZM3.4758 6.52758C5.64359 6.52758 6.99294 5.07693 6.99294 3.2641C6.95255 1.41039 5.64367 0 3.51694 0C1.39054 0 0 1.41041 0 3.2641C0 5.07701 1.34901 6.52758 3.43522 6.52758H3.47561H3.4758ZM10.024 28H16.2405V17.45C16.2405 16.8854 16.2809 16.3214 16.445 15.9178C16.8944 14.7897 17.9173 13.6213 19.6345 13.6213C21.884 13.6213 22.7839 15.3537 22.7839 17.8933V27.9999H29V17.1676C29 11.3649 25.9331 8.66493 21.8431 8.66493C18.4895 8.66493 17.0171 10.5583 16.1991 11.8479H16.2406V9.10806H10.0242C10.1057 10.8807 10.0242 27.9996 10.0242 27.9996L10.024 28Z" fill="url(#paint0_linear_73_4978)"/>
<defs>
<linearGradient id="paint0_linear_73_4978" x1="4.07813" y1="-1.15078e-06" x2="28.4055" y2="26.0551" gradientUnits="userSpaceOnUse">
<stop stop-color="#FF9900"/>
<stop offset="1" stop-color="#FF00C7"/>
</linearGradient>
</defs>
</svg>
