<svg width="347" height="100" viewBox="0 0 347 100" fill="none" xmlns="http://www.w3.org/2000/svg">
<path d="M33.668 84.6697C29.8565 84.6697 26.4988 84.0042 23.5948 82.6732C20.6908 81.3422 18.4523 79.497 16.8793 77.1375C15.3063 74.7175 14.5198 71.9345 14.5198 68.7885C14.5198 66.1265 15.0643 63.7065 16.1533 61.5285C17.3028 59.3505 18.8153 57.6262 20.6908 56.3557C22.6268 55.0852 24.7443 54.45 27.0433 54.45C29.1608 54.45 30.9455 54.9945 32.3975 56.0835C33.8495 57.112 34.757 58.564 35.12 60.4395C31.974 60.4395 29.4633 61.2865 27.5878 62.9805C25.7123 64.614 24.7745 66.8525 24.7745 69.696C24.7745 72.2975 25.561 74.3847 27.134 75.9577C28.707 77.5307 30.7943 78.3172 33.3958 78.3172C36.6023 78.3172 39.234 77.2585 41.291 75.141C43.4085 72.963 44.4673 70.2405 44.4673 66.9735C44.4673 64.13 43.6808 61.4377 42.1078 58.8967C40.5348 56.3557 38.1753 53.2702 35.0293 49.6402C31.7623 45.8892 29.2818 42.6827 27.5878 40.0207C25.9543 37.2982 25.1375 34.3337 25.1375 31.1272C25.1375 27.9812 26.0148 25.168 27.7693 22.6875C29.5238 20.1465 31.9438 18.15 35.0293 16.698C38.1148 15.246 41.5935 14.52 45.4655 14.52C50.366 14.52 54.2683 15.6695 57.1723 17.9685C60.1368 20.2675 61.619 23.353 61.619 27.225C61.619 29.766 60.9838 31.823 59.7133 33.396C58.4428 34.969 56.779 35.7555 54.722 35.7555C52.423 35.7555 50.5778 34.8177 49.1863 32.9422C50.3358 32.0952 51.2433 30.976 51.9088 29.5845C52.5743 28.193 52.907 26.741 52.907 25.2285C52.907 23.2925 52.3323 21.7497 51.1828 20.6002C50.0333 19.4507 48.4603 18.876 46.4638 18.876C44.0438 18.876 42.0473 19.7532 40.4743 21.5077C38.9618 23.2017 38.2055 25.3797 38.2055 28.0417C38.2055 30.4617 38.9013 32.7305 40.2928 34.848C41.6843 36.905 43.8623 39.567 46.8268 42.834C49.2468 45.4355 51.1828 47.674 52.6348 49.5495C54.1473 51.425 55.4178 53.603 56.4463 56.0835C57.5353 58.5035 58.0798 61.1352 58.0798 63.9787C58.0798 67.8507 56.9908 71.3597 54.8128 74.5057C52.6953 77.6517 49.761 80.1322 46.01 81.9472C42.3195 83.7622 38.2055 84.6697 33.668 84.6697Z" fill="url(#paint0_linear_10_3288)"/>
<path d="M72.1744 83.5807C69.2704 83.5807 66.9109 82.6732 65.0959 80.8582C63.3414 79.0432 62.4641 76.3207 62.4641 72.6907C62.4641 71.1782 62.7061 69.212 63.1901 66.792L68.6351 41.2912H65.6404L66.3664 37.6612H69.3611L72.0836 25.1377L85.5146 23.3227L82.4291 37.6612H87.8741L87.1481 41.2912H81.7031L75.8951 68.5162C75.6531 69.4237 75.5321 70.3917 75.5321 71.4202C75.5321 72.6302 75.8044 73.5075 76.3489 74.052C76.9539 74.536 77.9219 74.778 79.2529 74.778C81.0074 74.778 82.6409 74.052 84.1534 72.6C85.6659 71.0875 86.7549 69.1515 87.4204 66.792H91.2319C88.9934 73.326 86.1196 77.7727 82.6106 80.1322C79.1016 82.4312 75.6229 83.5807 72.1744 83.5807Z" fill="url(#paint1_linear_10_3288)"/>
<path d="M98.2742 83.5807C94.8257 83.5807 91.952 82.401 89.653 80.0415C87.354 77.682 86.2045 73.9915 86.2045 68.97C86.2045 64.493 87.0817 59.8042 88.8362 54.9037C90.6512 49.9427 93.3132 45.7682 96.8222 42.3802C100.392 38.9317 104.627 37.2075 109.527 37.2075C112.008 37.2075 113.853 37.631 115.063 38.478C116.273 39.325 116.878 40.4442 116.878 41.8357V42.471L117.876 37.6612H130.944L124.41 68.5162C124.168 69.4237 124.047 70.3917 124.047 71.4202C124.047 74.0217 125.287 75.3225 127.768 75.3225C129.462 75.3225 130.914 74.536 132.124 72.963C133.394 71.39 134.393 69.333 135.119 66.792H138.93C136.692 73.326 133.909 77.7727 130.581 80.1322C127.314 82.4312 124.017 83.5807 120.689 83.5807C118.148 83.5807 116.091 82.885 114.518 81.4935C113.006 80.0415 112.098 77.9542 111.796 75.2317C110.041 77.7122 108.075 79.739 105.897 81.312C103.78 82.8245 101.239 83.5807 98.2742 83.5807ZM104.173 74.778C105.685 74.778 107.168 74.0822 108.62 72.6907C110.132 71.2387 111.161 69.2725 111.705 66.792L116.061 46.2825C116.061 45.496 115.759 44.7397 115.154 44.0137C114.549 43.2272 113.611 42.834 112.34 42.834C109.92 42.834 107.742 44.2557 105.806 47.0992C103.87 49.8822 102.358 53.2702 101.269 57.2632C100.18 61.1957 99.6355 64.6745 99.6355 67.6995C99.6355 70.7245 100.059 72.6605 100.906 73.5075C101.813 74.3545 102.902 74.778 104.173 74.778Z" fill="url(#paint2_linear_10_3288)"/>
<path d="M141.323 37.6612H154.391L153.211 43.2877C155.268 41.4727 157.114 40.0812 158.747 39.1132C160.441 38.1452 162.256 37.6612 164.192 37.6612C166.128 37.6612 167.641 38.3267 168.73 39.6577C169.879 40.9887 170.454 42.592 170.454 44.4675C170.454 46.222 169.879 47.7647 168.73 49.0957C167.58 50.4267 165.977 51.0922 163.92 51.0922C162.589 51.0922 161.681 50.7897 161.197 50.1847C160.774 49.5192 160.441 48.5815 160.199 47.3715C160.018 46.585 159.836 46.0102 159.655 45.6472C159.473 45.2842 159.14 45.1027 158.656 45.1027C157.386 45.1027 156.297 45.375 155.389 45.9195C154.542 46.4035 153.423 47.2807 152.032 48.5512L144.772 83.0362H131.704L141.323 37.6612Z" fill="url(#paint3_linear_10_3288)"/>
<path d="M190.144 25.3192L203.575 23.5042L197.132 53.8147C200.036 53.5727 202.698 52.3022 205.118 50.0032C207.599 47.7042 209.535 44.8607 210.926 41.4727C212.318 38.0847 213.013 34.7572 213.013 31.4902C213.013 27.8602 212.076 24.8957 210.2 22.5967C208.325 20.2977 205.511 19.1482 201.76 19.1482C194.379 19.1482 188.602 21.0842 184.427 24.9562C180.313 28.8282 178.256 34.243 178.256 41.2005C178.256 43.439 178.468 45.012 178.891 45.9195C179.315 46.7665 179.527 47.2505 179.527 47.3715C176.26 47.3715 173.809 46.706 172.176 45.375C170.603 43.9835 169.816 41.7147 169.816 38.5687C169.816 34.6967 171.389 30.9457 174.535 27.3157C177.742 23.6252 181.826 20.6607 186.787 18.4222C191.748 16.1232 196.709 14.9737 201.67 14.9737C206.449 14.9737 210.442 15.7905 213.649 17.424C216.855 19.0575 219.215 21.2355 220.727 23.958C222.3 26.62 223.087 29.5845 223.087 32.8515C223.087 36.784 221.998 40.6257 219.82 44.3767C217.702 48.1277 214.647 51.2132 210.654 53.6332C206.661 55.9927 202.063 57.1725 196.86 57.1725H196.406L190.87 83.0362H177.802L190.144 25.3192Z" fill="url(#paint4_linear_10_3288)"/>
<path d="M232.184 83.5807C228.735 83.5807 225.861 82.401 223.562 80.0415C221.263 77.682 220.114 73.9915 220.114 68.97C220.114 64.493 220.991 59.8042 222.746 54.9037C224.561 49.9427 227.223 45.7682 230.732 42.3802C234.301 38.9317 238.536 37.2075 243.437 37.2075C245.917 37.2075 247.762 37.631 248.972 38.478C250.182 39.325 250.787 40.4442 250.787 41.8357V42.471L251.786 37.6612H264.854L258.32 68.5162C258.078 69.4237 257.957 70.3917 257.957 71.4202C257.957 74.0217 259.197 75.3225 261.677 75.3225C263.371 75.3225 264.823 74.536 266.033 72.963C267.304 71.39 268.302 69.333 269.028 66.792H272.84C270.601 73.326 267.818 77.7727 264.491 80.1322C261.224 82.4312 257.926 83.5807 254.599 83.5807C252.058 83.5807 250.001 82.885 248.428 81.4935C246.915 80.0415 246.008 77.9542 245.705 75.2317C243.951 77.7122 241.985 79.739 239.807 81.312C237.689 82.8245 235.148 83.5807 232.184 83.5807ZM238.082 74.778C239.595 74.778 241.077 74.0822 242.529 72.6907C244.042 71.2387 245.07 69.2725 245.615 66.792L249.971 46.2825C249.971 45.496 249.668 44.7397 249.063 44.0137C248.458 43.2272 247.52 42.834 246.25 42.834C243.83 42.834 241.652 44.2557 239.716 47.0992C237.78 49.8822 236.267 53.2702 235.178 57.2632C234.089 61.1957 233.545 64.6745 233.545 67.6995C233.545 70.7245 233.968 72.6605 234.815 73.5075C235.723 74.3545 236.812 74.778 238.082 74.778Z" fill="url(#paint5_linear_10_3288)"/>
<path d="M279.407 83.5807C276.503 83.5807 274.053 83.0362 272.056 81.9472C270.06 80.7977 268.577 79.3457 267.609 77.5912C266.641 75.7762 266.157 73.9007 266.157 71.9647C266.157 69.9682 266.641 68.244 267.609 66.792C268.517 65.2795 269.636 64.1905 270.967 63.525C273.327 59.29 275.384 55.0247 277.138 50.7292C278.893 46.3732 280.556 41.6845 282.129 36.663L295.56 34.848C295.863 42.592 296.377 50.9712 297.103 59.9857C297.406 63.6157 297.557 66.2475 297.557 67.881C297.557 69.2725 297.436 70.422 297.194 71.3295C300.037 69.696 302.215 68.1835 303.728 66.792H307.539C303.667 71.269 299.039 75.0502 293.655 78.1357C291.9 80.0112 289.722 81.4027 287.121 82.3102C284.58 83.1572 282.008 83.5807 279.407 83.5807ZM276.503 76.4115C278.741 76.4115 280.617 75.746 282.129 74.415C283.642 73.084 284.398 70.9362 284.398 67.9717C284.398 66.1567 284.217 63.6157 283.854 60.3487C283.249 53.4517 282.855 48.8235 282.674 46.464C281.222 51.2435 278.772 56.9607 275.323 63.6157C276.715 64.3417 277.41 65.4005 277.41 66.792C277.41 67.9415 277.017 68.97 276.231 69.8775C275.505 70.785 274.567 71.2387 273.417 71.2387C272.147 71.2387 271.33 70.8455 270.967 70.059C270.967 72.237 271.391 73.8402 272.238 74.8687C273.145 75.8972 274.567 76.4115 276.503 76.4115Z" fill="url(#paint6_linear_10_3288)"/>
<path d="M314.059 83.5807C311.155 83.5807 308.704 83.0362 306.708 81.9472C304.711 80.7977 303.229 79.3457 302.261 77.5912C301.293 75.7762 300.809 73.9007 300.809 71.9647C300.809 69.9682 301.293 68.244 302.261 66.792C303.169 65.2795 304.288 64.1905 305.619 63.525C307.978 59.29 310.035 55.0247 311.79 50.7292C313.544 46.3732 315.208 41.6845 316.781 36.663L330.212 34.848C330.515 42.592 331.029 50.9712 331.755 59.9857C332.057 63.6157 332.209 66.2475 332.209 67.881C332.209 71.5715 331.271 74.5965 329.395 76.956C327.52 79.3155 325.191 81.0095 322.408 82.038C319.685 83.0665 316.902 83.5807 314.059 83.5807ZM311.155 76.4115C313.393 76.4115 315.269 75.746 316.781 74.415C318.294 73.084 319.05 70.9362 319.05 67.9717C319.05 66.1567 318.868 63.6157 318.505 60.3487C317.9 53.4517 317.507 48.8235 317.326 46.464C315.874 51.2435 313.423 56.9607 309.975 63.6157C311.366 64.3417 312.062 65.4005 312.062 66.792C312.062 67.9415 311.669 68.97 310.882 69.8775C310.156 70.785 309.219 71.2387 308.069 71.2387C306.799 71.2387 305.982 70.8455 305.619 70.059C305.619 72.237 306.042 73.8402 306.889 74.8687C307.797 75.8972 309.219 76.4115 311.155 76.4115Z" fill="url(#paint7_linear_10_3288)"/>
<path fill-rule="evenodd" clip-rule="evenodd" d="M4.79813 85.1918C4.76691 85.1449 4.73597 85.0979 4.7053 85.0507C1.46395 80.064 0 74.4804 0 68.7885C0 64.086 0.977917 59.412 3.16642 55.035C3.21398 54.9398 3.26259 54.8452 3.31223 54.7512C5.47452 50.6542 8.5308 47.0554 12.5475 44.3344C12.6062 44.2946 12.6652 44.2552 12.7245 44.2163C12.9035 44.0989 13.0835 43.9838 13.2646 43.871C11.5051 39.8609 10.6177 35.57 10.6177 31.1273C10.6177 25.1186 12.3462 19.3782 15.8672 14.3706C19.2221 9.53875 23.7138 5.97564 28.8469 3.56004C34.1129 1.08195 39.7465 0 45.4657 0C52.5567 0 59.9479 1.67199 66.1284 6.53936C67.7497 7.80339 69.1782 9.20122 70.411 10.7118L83.5704 8.93354C88.258 8.30008 92.9603 9.98969 96.1728 13.4617C98.8504 16.3558 100.213 20.1858 100.016 24.0588C103.033 23.1523 106.217 22.6875 109.527 22.6875C111.267 22.6875 113.414 22.8087 115.706 23.3033C116.416 23.1965 117.141 23.1413 117.876 23.1413H130.944C132.739 23.1413 134.495 23.4733 136.132 24.0994C137.752 23.4786 139.505 23.1413 141.323 23.1413H154.391C155.829 23.1413 157.241 23.3543 158.588 23.7609C158.864 23.6986 159.142 23.6409 159.421 23.5879C160.611 21.5246 162.013 19.5947 163.563 17.8062L163.575 17.7925C168.29 12.3662 174.121 8.21781 180.748 5.2175C187.405 2.14277 194.417 0.45375 201.67 0.45375C208.02 0.45375 214.434 1.52857 220.24 4.48611C225.555 7.1936 230.2 11.2005 233.324 16.7351C234.581 18.8909 235.552 21.14 236.249 23.4556C238.563 22.9467 240.965 22.6875 243.437 22.6875C245.177 22.6875 247.323 22.8087 249.616 23.3033C250.325 23.1965 251.05 23.1413 251.786 23.1413H264.854C267.716 23.1413 270.479 23.9857 272.819 25.521C274.879 23.7995 277.417 22.6479 280.185 22.2738L293.616 20.4588C297.671 19.9109 301.768 21.0989 304.9 23.7305C305.686 24.3902 306.392 25.1252 307.012 25.9208C309.149 23.9779 311.859 22.6762 314.837 22.2738L328.268 20.4588C332.322 19.9109 336.42 21.0989 339.552 23.7305C342.685 26.3621 344.562 30.1931 344.721 34.2812C345.015 41.7895 345.515 49.9594 346.226 58.798C346.531 62.4574 346.729 65.6003 346.729 67.881C346.729 74.095 345.106 80.5263 340.762 85.991C337.273 90.3802 332.785 93.6724 327.492 95.6389C323.183 97.2604 318.68 98.1007 314.059 98.1007C309.382 98.1007 304.395 97.2252 299.755 94.6943C299.657 94.6409 299.56 94.5863 299.463 94.5306C298.838 94.1707 298.223 93.7862 297.621 93.3763C295.81 94.4459 293.896 95.3249 291.903 96.02C291.84 96.0422 291.776 96.0639 291.713 96.0851C287.735 97.4109 283.615 98.1007 279.407 98.1007C275.265 98.1007 270.879 97.4139 266.707 95.4983C262.996 97.134 258.941 98.1007 254.599 98.1007C251.042 98.1007 247.295 97.4165 243.778 95.6967C240.063 97.3682 236.113 98.1007 232.184 98.1007C225.024 98.1007 218.335 95.4825 213.163 90.1745C209.754 86.6758 207.782 82.5598 206.711 78.4035L205.069 86.0752C203.636 92.7716 197.719 97.5563 190.871 97.5563H177.803C173.419 97.5563 169.27 95.5756 166.513 92.1671C163.756 88.7585 162.687 84.2869 163.604 80L166.717 65.4412C165.778 65.5571 164.843 65.6122 163.92 65.6122C163.727 65.6122 163.513 65.6098 163.28 65.603L158.98 86.0275C157.566 92.7466 151.638 97.5563 144.772 97.5563H131.704C130.503 97.5563 129.32 97.4077 128.179 97.122C125.794 97.7531 123.293 98.1007 120.69 98.1007C117.133 98.1007 113.386 97.4165 109.868 95.6967C106.153 97.3682 102.203 98.1007 98.2744 98.1007C93.8023 98.1007 89.5137 97.0792 85.6639 95.0188C81.5349 96.9414 77.0138 98.1007 72.1746 98.1007C66.6671 98.1007 61.133 96.4687 56.5285 92.6706C55.2 93.5249 53.8139 94.2997 52.3776 94.9967C46.506 97.8761 40.18 99.1898 33.6682 99.1898C28.1662 99.1898 22.6783 98.2256 17.5452 95.8729C12.5103 93.5652 8.04823 90.0669 4.79813 85.1918ZM118.452 83.3774C119.151 83.513 119.897 83.5807 120.69 83.5807C121.553 83.5807 122.413 83.5035 123.272 83.3489C124.594 83.111 125.91 82.6901 127.222 82.0862C127.404 82.0023 127.586 81.915 127.768 81.8241C128.708 81.3544 129.646 80.7904 130.581 80.1323C130.612 80.1109 130.642 80.0894 130.672 80.0678C131.022 79.8148 131.366 79.5385 131.704 79.239C132.048 78.9338 132.386 78.6044 132.718 78.251L131.704 83.0363H144.772L152.032 48.5513C152.872 47.7844 153.612 47.1608 154.254 46.6805C154.3 46.6458 154.346 46.6119 154.391 46.5787C154.758 46.31 155.091 46.0903 155.39 45.9195C155.421 45.9006 155.453 45.8821 155.485 45.8639C155.663 45.7621 155.848 45.6705 156.04 45.5891C156.072 45.5752 156.105 45.5616 156.138 45.5483C156.879 45.2513 157.718 45.1027 158.657 45.1027C159.141 45.1027 159.473 45.2843 159.655 45.6472C159.786 45.9088 159.916 46.2803 160.047 46.7617C160.075 46.8643 160.103 46.9718 160.131 47.0843C160.154 47.1766 160.176 47.2724 160.199 47.3715C160.441 48.5815 160.774 49.5193 161.198 50.1847C161.314 50.331 161.456 50.4595 161.623 50.5704C162.145 50.9183 162.911 51.0922 163.92 51.0922C163.978 51.0922 164.036 51.0917 164.094 51.0906C164.127 51.09 164.16 51.0892 164.192 51.0883C164.569 51.0772 164.93 51.0428 165.276 50.9852C165.338 50.9748 165.4 50.9637 165.461 50.9517C165.477 50.9488 165.492 50.9458 165.507 50.9427C165.582 50.9277 165.655 50.9115 165.729 50.8942C166.942 50.607 167.942 50.0075 168.73 49.0958C169.196 48.5558 169.568 47.9811 169.845 47.3715C170.137 46.7297 170.324 46.0493 170.406 45.3302C170.418 45.2241 170.428 45.1171 170.435 45.0093C170.448 44.831 170.454 44.6504 170.454 44.4675C170.454 44.4098 170.453 44.3524 170.452 44.2953C170.443 43.8106 170.395 43.3444 170.307 42.8967C170.191 42.2982 170.004 41.7328 169.747 41.2005C169.67 41.0396 169.586 40.8817 169.496 40.7268C169.287 40.3689 169.044 40.0271 168.767 39.7015C168.755 39.6869 168.742 39.6723 168.73 39.6577C168.375 39.2241 167.975 38.8611 167.531 38.5688C166.61 37.9638 165.498 37.6613 164.192 37.6613C164.101 37.6613 164.01 37.6623 163.92 37.6645C163.903 37.6649 163.886 37.6653 163.869 37.6658C162.456 37.7056 161.109 38.0066 159.828 38.5688C159.711 38.6198 159.595 38.6729 159.48 38.7283C159.233 38.8467 158.989 38.9751 158.747 39.1132C158.717 39.1311 158.687 39.1492 158.657 39.1673C158.388 39.3285 158.113 39.501 157.833 39.6848C157.72 39.7591 157.606 39.8352 157.491 39.9132C156.834 40.3583 156.147 40.8638 155.43 41.4298C155.405 41.4496 155.38 41.4694 155.354 41.4893C155.039 41.7392 154.718 42.0007 154.391 42.2738C154.151 42.4746 153.908 42.6816 153.661 42.8948C153.642 42.9112 153.623 42.9276 153.604 42.9441C153.474 43.0569 153.343 43.1715 153.212 43.2877L154.391 37.6613H141.323L135.148 66.792H135.119C134.947 67.3939 134.76 67.9687 134.557 68.5163C134.298 69.2168 134.014 69.8729 133.705 70.4845C133.628 70.6364 133.55 70.7856 133.47 70.9321C133.379 71.0984 133.287 71.2611 133.192 71.4203C132.86 71.9779 132.505 72.4921 132.124 72.963C132.092 73.0043 132.061 73.045 132.028 73.0852C131.922 73.2185 131.814 73.3458 131.704 73.4672C130.582 74.7041 129.27 75.3225 127.768 75.3225C127.563 75.3225 127.366 75.3136 127.178 75.2958C127.169 75.2949 127.159 75.294 127.15 75.2931C126.017 75.1801 125.194 74.7416 124.682 73.9776C124.646 73.9238 124.611 73.8685 124.578 73.8115C124.242 73.2306 124.066 72.4822 124.049 71.5663C124.048 71.5181 124.047 71.4694 124.047 71.4203C124.047 71.2555 124.051 71.0924 124.057 70.9308C124.058 70.9086 124.059 70.8864 124.059 70.8642C124.062 70.8089 124.065 70.7538 124.068 70.6988C124.07 70.6535 124.073 70.6082 124.076 70.5632C124.101 70.2124 124.14 69.8691 124.194 69.5334C124.199 69.5047 124.203 69.476 124.208 69.4474C124.262 69.1303 124.329 68.8199 124.41 68.5163L130.944 37.6613H117.876L116.878 42.471V41.8357C116.878 40.7621 116.518 39.8504 115.798 39.1009C115.584 38.8791 115.34 38.6714 115.063 38.478C114.366 37.9902 113.459 37.6429 112.341 37.436C111.517 37.2837 110.579 37.2075 109.527 37.2075C107.16 37.2075 104.948 37.61 102.891 38.4149C102.713 38.4844 102.537 38.5568 102.362 38.6322C101.46 39.0206 100.589 39.4886 99.7479 40.036C99.0709 40.4768 98.4138 40.9692 97.7765 41.5131C97.7508 41.5351 97.725 41.5572 97.6993 41.5793C97.4027 41.8351 97.1104 42.1021 96.8224 42.3802C96.583 42.6114 96.3475 42.8463 96.116 43.0848C95.7773 43.4336 95.4472 43.7902 95.1254 44.1546C93.0299 46.5282 91.2922 49.234 89.9121 52.272C89.6668 52.8121 89.4328 53.3627 89.21 53.9238C89.204 53.939 89.198 53.9542 89.1919 53.9695C89.07 54.2777 88.9515 54.5892 88.8364 54.9038C88.7358 55.1848 88.6381 55.4651 88.5433 55.7447C88.1084 57.0268 87.7342 58.2943 87.4206 59.5472C87.059 60.9921 86.778 62.4175 86.5777 63.8234C86.5149 64.2645 86.46 64.7037 86.413 65.141C86.3651 65.5874 86.3254 66.0318 86.294 66.4742C86.2649 66.8844 86.2429 67.2928 86.228 67.6995C86.2125 68.1249 86.2047 68.5484 86.2047 68.97C86.2047 69.2549 86.2084 69.5356 86.2158 69.812C86.0665 70.0887 85.9089 70.3571 85.7428 70.617C85.6461 70.7684 85.5466 70.9169 85.4442 71.0626C85.3885 71.1418 85.332 71.2202 85.2747 71.2977C85.2443 71.3388 85.2137 71.3797 85.1828 71.4203C84.8648 71.8386 84.5218 72.2318 84.1536 72.6C82.6411 74.052 81.0076 74.778 79.2531 74.778C79.2023 74.778 79.152 74.7776 79.1022 74.7769C79.0708 74.7765 79.0397 74.7759 79.0087 74.7752C77.803 74.7469 76.9164 74.5059 76.3491 74.052C76.0182 73.7211 75.7879 73.2674 75.6581 72.6907C75.5743 72.3185 75.5324 71.895 75.5324 71.4203C75.5324 71.204 75.5377 70.9905 75.5484 70.7796C75.5658 70.436 75.5974 70.0996 75.6433 69.7702C75.6536 69.6958 75.6647 69.6218 75.6765 69.5482C75.6811 69.5191 75.6859 69.4901 75.6908 69.4611C75.7 69.4065 75.7096 69.3521 75.7196 69.2978C75.7399 69.1877 75.7619 69.0785 75.7855 68.97C75.8189 68.8171 75.8555 68.6659 75.8954 68.5163L81.7034 41.2913H87.1484L87.8744 37.6613H82.4294L85.5149 23.3227L72.0839 25.1378L69.3614 37.6613H66.3666L65.6406 41.2913H68.6354L63.1904 66.792C62.8321 68.5834 62.6064 70.1261 62.5133 71.4203C62.4807 71.8744 62.4644 72.2979 62.4644 72.6907C62.4644 76.3207 63.3416 79.0433 65.0961 80.8583C65.6872 81.4494 66.3361 81.9442 67.0427 82.3428C67.2615 82.4662 67.4858 82.5804 67.7157 82.6854C68.1419 82.88 68.5872 83.0429 69.0515 83.1741C70.0112 83.4452 71.0522 83.5807 72.1746 83.5807C72.9753 83.5807 73.7777 83.5188 74.5817 83.3948C76.1328 83.1557 77.6899 82.6859 79.2531 81.9855C80.3693 81.4853 81.4885 80.8676 82.6109 80.1323C83.9366 79.2408 85.1717 78.0514 86.3161 76.5641C86.5559 76.2523 86.7918 75.9275 87.0237 75.5896C87.0397 75.5663 87.0557 75.5429 87.0716 75.5195C87.0905 75.5799 87.1097 75.6399 87.1292 75.6996C87.2197 75.9765 87.3168 76.2458 87.4206 76.5073C87.9751 77.905 88.7193 79.0831 89.6532 80.0415C90.1115 80.5119 90.5927 80.9354 91.0967 81.312C91.4875 81.604 91.892 81.8678 92.3102 82.1035C92.4362 82.1744 92.5634 82.2428 92.6918 82.3086C93.123 82.5297 93.5683 82.722 94.0276 82.8854C94.1199 82.9183 94.2128 82.9499 94.3063 82.9805C95.5315 83.3807 96.8542 83.5807 98.2744 83.5807C98.5045 83.5807 98.732 83.5762 98.9569 83.5671C99.0265 83.5643 99.0958 83.561 99.1648 83.5573C101.008 83.4589 102.677 83.0505 104.173 82.332C104.776 82.0424 105.351 81.7024 105.897 81.312C107.486 80.1644 108.963 78.7752 110.326 77.1446C110.72 76.6742 111.104 76.1838 111.478 75.6732C111.479 75.6723 111.48 75.6713 111.48 75.6703C111.586 75.5257 111.692 75.3796 111.796 75.2318C111.83 75.5394 111.872 75.8389 111.922 76.1303C111.922 76.1327 111.923 76.1351 111.923 76.1376C112.313 78.4216 113.179 80.2069 114.519 81.4935C115.29 82.1763 116.179 82.6915 117.184 83.0392C117.587 83.179 118.01 83.2917 118.452 83.3774ZM115.154 44.0138C115.759 44.7397 116.061 45.496 116.061 46.2825L111.705 66.792C111.637 67.1026 111.562 67.4051 111.478 67.6995C111.073 69.13 110.489 70.3703 109.726 71.4203C109.662 71.5089 109.596 71.5961 109.529 71.6821C109.248 72.0421 108.945 72.3783 108.62 72.6907C108.56 72.7479 108.501 72.8038 108.441 72.8586C107.046 74.1382 105.624 74.778 104.173 74.778C104.031 74.778 103.891 74.7727 103.754 74.7621C102.662 74.678 101.712 74.2598 100.906 73.5075C100.801 73.4019 100.702 73.2793 100.609 73.1399C100.198 72.5195 99.9171 71.5643 99.7664 70.2741C99.7634 70.2483 99.7604 70.2224 99.7575 70.1963C99.7395 70.0347 99.7235 69.8681 99.7094 69.6963C99.7074 69.6708 99.7053 69.6452 99.7033 69.6195C99.6871 69.4105 99.6738 69.194 99.6635 68.97C99.645 68.5703 99.6357 68.1468 99.6357 67.6995C99.6357 67.5544 99.6369 67.4082 99.6394 67.2609C99.6557 66.3087 99.7243 65.3127 99.8454 64.2731C99.8486 64.2456 99.8518 64.2182 99.8551 64.1907C99.877 64.0066 99.9005 63.8211 99.9257 63.6342C99.9263 63.6296 99.9269 63.625 99.9275 63.6204C100.039 62.7941 100.183 61.9411 100.358 61.0615C100.476 60.474 100.607 59.8747 100.753 59.2634C100.76 59.2348 100.767 59.2062 100.773 59.1775C100.924 58.5518 101.089 57.9137 101.269 57.2633C101.339 57.0089 101.41 56.7571 101.482 56.5077C101.949 54.9103 102.485 53.4136 103.093 52.0175C103.409 51.29 103.745 50.5898 104.099 49.9169C104.1 49.9159 104.1 49.9149 104.101 49.914C104.15 49.8213 104.199 49.7291 104.248 49.6375C104.438 49.287 104.633 48.944 104.834 48.6087C105.145 48.0872 105.469 47.584 105.807 47.0993C106.002 46.8125 106.2 46.5403 106.4 46.2825C106.918 45.6152 107.452 45.0447 108.003 44.571C108.498 44.1458 109.006 43.7986 109.527 43.5295C110.323 43.1187 111.15 42.8899 112.008 42.8431C112.118 42.837 112.229 42.834 112.341 42.834C113.404 42.834 114.235 43.1096 114.832 43.6608C114.948 43.768 115.055 43.8857 115.154 44.0138ZM21.2773 55.9936C21.08 56.108 20.8846 56.2287 20.691 56.3558C18.8155 57.6263 17.303 59.3505 16.1535 61.5285C15.0645 63.7065 14.52 66.1265 14.52 68.7885C14.52 69.0944 14.5274 69.3969 14.5423 69.696C14.6804 72.4723 15.4595 74.9528 16.8795 77.1375C18.0557 78.9018 19.6039 80.3785 21.5243 81.5677C22.1722 81.969 22.8624 82.3375 23.595 82.6733C26.4297 83.9725 29.6967 84.6376 33.396 84.6686C33.4865 84.6694 33.5772 84.6698 33.6682 84.6698C38.2058 84.6698 42.3197 83.7623 46.0102 81.9473C46.5197 81.7007 47.0141 81.442 47.4934 81.1709C47.4945 81.1703 47.4956 81.1697 47.4966 81.1691C47.9632 80.9051 48.4155 80.6295 48.8535 80.3423C51.2772 78.753 53.2637 76.8075 54.813 74.5057C55.2229 73.9136 55.5943 73.3086 55.9271 72.6907C56.8949 70.8938 57.5365 68.988 57.8517 66.9735C57.9146 66.5714 57.9645 66.165 58.0014 65.7542C58.0035 65.7313 58.0055 65.7083 58.0075 65.6853C58.0558 65.1245 58.08 64.5557 58.08 63.9788C58.08 61.1353 57.5355 58.5035 56.4465 56.0835C55.757 54.4207 54.9588 52.8938 54.0519 51.5029C53.7645 51.0621 53.4662 50.635 53.1569 50.2215C52.9863 49.9933 52.8123 49.7693 52.635 49.5495C52.4805 49.35 52.3206 49.1463 52.1552 48.9386C50.7656 47.1936 48.9895 45.1587 46.827 42.834C46.2209 42.1661 45.6477 41.5234 45.1074 40.9061C45.1002 40.8979 45.093 40.8897 45.0859 40.8815C44.1387 39.7988 43.2929 38.794 42.5485 37.8672C41.6486 36.7469 40.8968 35.7405 40.293 34.848C39.8979 34.2468 39.559 33.6335 39.2761 33.0079C39.2261 32.8973 39.1778 32.7864 39.1313 32.675C38.9191 32.167 38.7434 31.6511 38.6042 31.1273C38.5233 30.8227 38.4547 30.5154 38.3984 30.2055C38.3861 30.1379 38.3744 30.0702 38.3633 30.0023C38.2583 29.3602 38.2057 28.7067 38.2057 28.0418C38.2057 27.2359 38.275 26.4745 38.4136 25.7573C38.4483 25.5783 38.4872 25.402 38.5304 25.2285C38.5878 24.9981 38.6529 24.7726 38.7255 24.552C38.8472 24.1825 38.9902 23.8267 39.1546 23.4845C39.5001 22.7652 39.9401 22.1063 40.4745 21.5078C40.5271 21.4491 40.5801 21.3915 40.6336 21.3348C41.9557 19.9347 43.5664 19.1325 45.4657 18.9283C45.7901 18.8934 46.1228 18.876 46.464 18.876C48.4605 18.876 50.0335 19.4508 51.183 20.6003C51.5239 20.9412 51.8143 21.3167 52.0541 21.7268C52.3752 22.276 52.6057 22.8872 52.7455 23.5604C52.7519 23.5912 52.7581 23.622 52.7641 23.653C52.8595 24.1455 52.9072 24.6707 52.9072 25.2285C52.9072 25.9061 52.8405 26.5716 52.7069 27.225C52.7048 27.2349 52.7028 27.2449 52.7007 27.2548C52.6861 27.3255 52.6706 27.3959 52.6544 27.4663C52.6397 27.53 52.6243 27.5937 52.6083 27.6572C52.5759 27.7859 52.5409 27.914 52.5032 28.0418C52.3492 28.564 52.1511 29.0783 51.909 29.5845C51.6683 30.0878 51.3959 30.5555 51.0919 30.9876C51.0862 30.9956 51.0806 31.0036 51.0749 31.0116C50.7286 31.5003 50.3416 31.9432 49.9138 32.3402C49.6969 32.5415 49.4695 32.731 49.2317 32.9087C49.2167 32.92 49.2016 32.9311 49.1865 32.9423C49.1866 32.9424 49.1867 32.9426 49.1869 32.9427C49.988 34.0224 50.9395 34.7912 52.0415 35.2493C52.7748 35.5541 53.5749 35.7213 54.4415 35.7508C54.5034 35.7529 54.5657 35.7543 54.6284 35.755C54.6596 35.7553 54.6909 35.7555 54.7222 35.7555C55.2201 35.7555 55.6949 35.7094 56.1467 35.6173C56.6711 35.5103 57.1644 35.3413 57.6267 35.1102C58.0298 34.9088 58.4093 34.6601 58.7652 34.3643C59.1025 34.0839 59.4186 33.7611 59.7135 33.396C59.7288 33.377 59.744 33.358 59.7592 33.3389C60.9992 31.7733 61.6192 29.7354 61.6192 27.225C61.6192 26.5345 61.5721 25.869 61.4778 25.2285C61.4196 24.8332 61.3435 24.4474 61.2494 24.0711C61.13 23.594 60.9818 23.1322 60.8048 22.6858C60.3271 21.4815 59.6394 20.3887 58.7416 19.4074C58.2752 18.8977 57.7522 18.4181 57.1725 17.9685C56.5438 17.4708 55.8684 17.027 55.1462 16.6371C52.762 15.3497 49.8679 14.6495 46.464 14.5364C46.136 14.5255 45.8032 14.52 45.4657 14.52C41.6158 14.52 38.1546 15.2378 35.0822 16.6733C35.0773 16.6756 35.0724 16.6778 35.0676 16.6801C35.0549 16.6861 35.0422 16.692 35.0295 16.698C31.944 18.15 29.524 20.1465 27.7695 22.6875C26.6099 24.3269 25.8335 26.1117 25.4403 28.0418C25.2386 29.032 25.1378 30.0605 25.1378 31.1273C25.1378 34.3 25.9374 37.2357 27.5366 39.9346C27.5537 39.9633 27.5708 39.9921 27.588 40.0207C28.0306 40.7162 28.5268 41.4489 29.0768 42.2187C29.1114 42.2672 29.1463 42.3158 29.1814 42.3647C30.0114 43.5194 30.9608 44.7567 32.0294 46.0766C32.9424 47.2042 33.9424 48.3921 35.0295 49.6402C35.0598 49.6752 35.0901 49.7102 35.1202 49.7451C35.4513 50.1278 35.7736 50.5045 36.0871 50.875C36.1255 50.9205 36.1639 50.9658 36.202 51.0111C36.4391 51.2922 36.6711 51.5697 36.898 51.8437C36.9334 51.8865 36.9687 51.9292 37.0039 51.9718C38.894 54.2613 40.4252 56.3024 41.5973 58.0948C41.6485 58.1732 41.6991 58.2511 41.749 58.3285C41.8729 58.5209 41.9926 58.7103 42.108 58.8967C42.1431 58.9534 42.1777 59.0101 42.212 59.0669C42.6899 59.8585 43.0918 60.6648 43.4178 61.4856C43.4697 61.6164 43.5197 61.7474 43.5678 61.8789C43.82 62.5687 44.0192 63.2686 44.1653 63.9788C44.3668 64.9576 44.4675 65.9559 44.4675 66.9735C44.4675 67.0966 44.466 67.2189 44.463 67.3404C44.4614 67.4056 44.4593 67.4705 44.4569 67.5353C44.3868 69.368 43.9702 71.0226 43.2072 72.4991C42.9216 73.0518 42.5874 73.5796 42.2046 74.0823C42.192 74.0989 42.1794 74.1154 42.1667 74.132C41.8983 74.4804 41.6065 74.8167 41.2912 75.141C39.2928 77.1983 36.7518 78.2562 33.6682 78.3147C33.578 78.3164 33.4872 78.3173 33.396 78.3173C30.7945 78.3173 28.7072 77.5307 27.1342 75.9578C27.0271 75.8506 26.9235 75.741 26.8236 75.629C25.8916 74.5843 25.2776 73.3317 24.9815 71.8712C24.9735 71.8315 24.9657 71.7917 24.9581 71.7518C24.8359 71.1065 24.7747 70.4212 24.7747 69.696C24.7747 69.3863 24.7859 69.0838 24.8081 68.7885C24.818 68.6576 24.83 68.5282 24.8442 68.4002C24.925 67.6729 25.0763 66.9911 25.298 66.3547C25.3231 66.2825 25.3492 66.2109 25.3762 66.1398C25.4192 66.0265 25.4645 65.9147 25.5122 65.8043C25.6875 65.3983 25.8941 65.0124 26.1319 64.6466C26.1604 64.6028 26.1894 64.5592 26.2188 64.5159C26.4628 64.157 26.7377 63.8181 27.0435 63.4991C27.1502 63.3878 27.2606 63.279 27.3747 63.1726C27.3763 63.1712 27.3778 63.1698 27.3793 63.1684C27.4475 63.1049 27.5171 63.0423 27.588 62.9805C28.2861 62.3499 29.0723 61.8367 29.9464 61.4409C31.4207 60.7733 33.1453 60.4395 35.1202 60.4395C34.7573 58.564 33.8498 57.112 32.3977 56.0835C31.4816 55.3964 30.4329 54.926 29.2518 54.6724C29.2441 54.6708 29.2365 54.6692 29.2288 54.6675C28.5447 54.5225 27.8162 54.45 27.0435 54.45C25.0328 54.45 23.1609 54.9359 21.4279 55.9078C21.4012 55.9227 21.3745 55.9378 21.3479 55.953C21.3243 55.9665 21.3008 55.98 21.2773 55.9936ZM45.4657 26.5029L46.464 26.9804ZM48.2428 29.4131C48.2608 29.4248 48.2735 29.4319 48.2801 29.4351C48.2833 29.4366 48.285 29.4372 48.2853 29.437C48.2855 29.4367 48.2842 29.4356 48.2812 29.4336C48.2752 29.4297 48.2626 29.4227 48.2428 29.4131ZM174.975 26.8202C175.115 26.666 175.257 26.513 175.4 26.3614C176.546 25.1455 177.795 24.0142 179.146 22.9674C179.8 22.4605 180.478 21.9735 181.18 21.5063C181.19 21.4999 181.2 21.4934 181.209 21.487C182.926 20.3472 184.785 19.3256 186.787 18.4223C187.551 18.068 188.316 17.7411 189.08 17.4414C193.277 15.7963 197.473 14.9737 201.67 14.9737C201.7 14.9737 201.73 14.9738 201.761 14.9738C201.983 14.9743 202.204 14.9766 202.424 14.9806C206.871 15.0627 210.612 15.8771 213.649 17.424C214.246 17.7283 214.814 18.0515 215.353 18.3936C216.213 18.9403 216.999 19.5354 217.71 20.1787C218.941 21.2935 219.947 22.5533 220.727 23.958C221.823 25.8121 222.537 27.813 222.87 29.9606C222.947 30.4625 223.004 30.9723 223.04 31.4902C223.071 31.938 223.087 32.3918 223.087 32.8515C223.087 33.3704 223.068 33.8876 223.03 34.4033C223.03 34.4048 223.03 34.4063 223.03 34.4078C222.78 37.7991 221.71 41.1221 219.82 44.3768C219.705 44.58 219.588 44.7813 219.467 44.9807C217.957 47.4853 216.011 49.6814 213.631 51.5691C213.61 51.5855 213.59 51.6019 213.569 51.6182C213.138 51.958 212.693 52.2877 212.233 52.6074C211.724 52.9617 211.198 53.3036 210.654 53.6333C210.204 53.899 209.747 54.1499 209.282 54.3857C209.259 54.3974 209.236 54.409 209.213 54.4206C208.637 54.7101 208.05 54.9768 207.451 55.2206C207.009 55.4003 206.561 55.5676 206.107 55.7226C203.653 56.5595 201.013 57.0341 198.187 57.1464C197.93 57.1566 197.672 57.1638 197.412 57.168C197.229 57.171 197.045 57.1725 196.86 57.1725H196.406L190.871 83.0363H177.803L190.145 25.3192L203.576 23.5043L197.132 53.8147C197.754 53.763 198.364 53.6641 198.963 53.5182C201.164 52.9821 203.216 51.8104 205.118 50.0032C205.842 49.3325 206.519 48.6155 207.15 47.852C207.167 47.8314 207.184 47.8108 207.201 47.7901C208.71 45.9514 209.952 43.8456 210.926 41.4727C211.166 40.8891 211.385 40.3073 211.584 39.7272C211.596 39.6902 211.609 39.6532 211.621 39.6163C212.392 37.3335 212.843 35.0786 212.974 32.8515C213 32.3966 213.014 31.9428 213.014 31.4902C213.014 30.4904 212.943 29.5411 212.8 28.6422C212.787 28.5563 212.772 28.4708 212.757 28.3857C212.561 27.2627 212.25 26.2201 211.826 25.2581C211.51 24.5399 211.13 23.8665 210.687 23.238C210.533 23.0188 210.37 22.805 210.2 22.5968C208.536 20.5568 206.134 19.4219 202.993 19.192C202.594 19.1628 202.183 19.1482 201.761 19.1482C201.73 19.1482 201.7 19.1483 201.67 19.1483C197.697 19.1569 194.19 19.7284 191.15 20.8628C190.629 21.0571 190.121 21.268 189.628 21.4954C189.452 21.5765 189.278 21.6597 189.105 21.7449C188.893 21.8498 188.684 21.9578 188.477 22.069C188.465 22.0754 188.453 22.0818 188.441 22.0883C187.283 22.714 186.207 23.4395 185.214 24.265C184.946 24.4881 184.684 24.7185 184.427 24.9562C182.656 26.6233 181.266 28.5764 180.257 30.8154C180.1 31.1661 179.951 31.5237 179.812 31.8883C179.811 31.8912 179.809 31.8941 179.808 31.897C179.689 32.2099 179.577 32.5281 179.471 32.8513C179.456 32.896 179.442 32.9407 179.428 32.9855C178.961 34.4458 178.634 36.0105 178.446 37.6795C178.421 37.9059 178.398 38.1343 178.378 38.3645C178.372 38.4324 178.366 38.5005 178.36 38.5688C178.291 39.42 178.256 40.2972 178.256 41.2005C178.256 42.5211 178.33 43.6101 178.477 44.4675C178.58 45.0634 178.718 45.5474 178.892 45.9195C179.315 46.7665 179.527 47.2505 179.527 47.3715C178.408 47.3715 177.384 47.2934 176.456 47.1371C176.414 47.13 176.372 47.1226 176.33 47.1152C174.609 46.8091 173.224 46.2291 172.176 45.375C172.057 45.2699 171.943 45.1598 171.833 45.0447C171.742 44.9492 171.654 44.8502 171.569 44.7477C171.494 44.657 171.421 44.5636 171.35 44.4675C171.312 44.4145 171.274 44.3607 171.236 44.3061C171.156 44.1889 171.079 44.0678 171.006 43.943C170.796 43.585 170.613 43.196 170.459 42.7758C170.281 42.292 170.14 41.7669 170.036 41.2005C169.995 40.9767 169.959 40.7464 169.93 40.5097C169.862 39.9634 169.824 39.3827 169.818 38.7676C169.818 38.7513 169.817 38.7349 169.817 38.7186C169.817 38.6736 169.817 38.6285 169.817 38.5833C169.817 38.5784 169.817 38.5736 169.817 38.5688C169.817 37.5514 169.925 36.5424 170.142 35.5418C170.752 32.734 172.216 29.992 174.536 27.3158C174.68 27.1491 174.827 26.9839 174.975 26.8202ZM226.164 47.958C226.148 47.9828 226.132 48.0077 226.116 48.0326C224.957 49.8475 223.958 51.8112 223.119 53.9238C223.113 53.939 223.107 53.9542 223.101 53.9695C222.979 54.2777 222.861 54.5892 222.746 54.9038C221.55 58.243 220.762 61.484 220.381 64.6266C220.256 65.6616 220.175 66.6859 220.137 67.6995C220.122 68.1249 220.114 68.5484 220.114 68.97C220.114 73.9915 221.264 77.682 223.563 80.0415C224.376 80.8766 225.262 81.5639 226.22 82.1035C226.346 82.1744 226.473 82.2428 226.601 82.3086C228.256 83.1567 230.116 83.5807 232.184 83.5807C232.414 83.5807 232.641 83.5762 232.866 83.5671C234.792 83.4891 236.531 83.0774 238.083 82.332C238.686 82.0424 239.26 81.7024 239.807 81.312C241.396 80.1644 242.872 78.7752 244.236 77.1446C244.629 76.6742 245.013 76.1838 245.388 75.6732C245.388 75.6723 245.389 75.6713 245.39 75.6703C245.496 75.5257 245.601 75.3796 245.706 75.2318C245.74 75.5394 245.782 75.8389 245.831 76.1303C245.832 76.1327 245.832 76.1351 245.833 76.1376C246.223 78.4216 247.088 80.2069 248.428 81.4935C249.51 82.4506 250.821 83.0786 252.361 83.3774C252.991 83.4995 253.659 83.5667 254.365 83.5788C254.443 83.5801 254.521 83.5807 254.599 83.5807C255.286 83.5807 255.971 83.5318 256.655 83.434C256.827 83.4094 256.998 83.3817 257.17 83.3509C257.174 83.3502 257.178 83.3495 257.182 83.3489C258.094 83.1846 259.004 82.9332 259.912 82.5944C260.501 82.3745 261.09 82.1177 261.678 81.8241C261.76 81.7827 261.843 81.7406 261.926 81.6978C262.783 81.2543 263.638 80.7325 264.491 80.1323C265.31 79.5517 266.095 78.8447 266.848 78.0113C266.856 78.0023 266.865 77.9933 266.873 77.9843C267.07 77.7647 267.265 77.5364 267.458 77.2994C267.507 77.3969 267.558 77.4941 267.61 77.5913C267.746 77.8392 267.894 78.0811 268.051 78.3169C268.085 78.3685 268.12 78.4198 268.156 78.4708C268.419 78.8508 268.71 79.2148 269.028 79.5627C269.611 80.1995 270.285 80.7826 271.05 81.312C271.369 81.5331 271.705 81.7449 272.056 81.9473C272.489 82.1831 272.943 82.3935 273.418 82.5783C274.292 82.9185 275.239 83.1721 276.258 83.3392C276.339 83.3525 276.421 83.3652 276.503 83.3775C277.415 83.513 278.383 83.5807 279.407 83.5807C279.894 83.5807 280.38 83.5659 280.864 83.5363C281.377 83.5049 281.889 83.4569 282.4 83.3923C283.985 83.1917 285.559 82.831 287.121 82.3103C287.257 82.2627 287.393 82.2137 287.527 82.1635C287.772 82.0716 288.013 81.9752 288.251 81.8744C288.358 81.8288 288.465 81.7822 288.571 81.7347C290.121 81.0398 291.501 80.1494 292.709 79.0634C293.006 78.7959 293.294 78.5165 293.57 78.2253C293.599 78.1956 293.627 78.1657 293.655 78.1358C295.128 77.2918 296.544 76.3957 297.904 75.4477C298.299 75.1717 298.69 74.8913 299.077 74.6064C299.336 74.4152 299.593 74.2219 299.848 74.0267C299.925 73.9676 300.002 73.9084 300.079 73.8489C300.348 73.6409 300.614 73.4307 300.878 73.2182C300.947 73.8426 301.067 74.4604 301.239 75.0719C301.257 75.1336 301.275 75.1953 301.293 75.2569C301.529 76.0458 301.852 76.824 302.261 77.5913C302.398 77.8392 302.545 78.0811 302.702 78.3169C302.737 78.3685 302.772 78.4198 302.807 78.4708C303.084 78.8699 303.391 79.2513 303.728 79.615C304.3 80.2315 304.957 80.7972 305.701 81.312C306.021 81.5331 306.357 81.7449 306.708 81.9473C306.883 82.0429 307.062 82.1343 307.245 82.2216C307.512 82.3495 307.787 82.4684 308.069 82.5783C309.014 82.9456 310.042 83.212 311.155 83.3775C311.217 83.3867 311.28 83.3956 311.342 83.4043C312.199 83.5219 313.104 83.5807 314.059 83.5807C315.067 83.5807 316.068 83.5161 317.061 83.3867C318.869 83.1513 320.651 82.7018 322.408 82.038C322.679 81.9378 322.946 81.8313 323.208 81.7184C325.64 80.6731 327.703 79.0856 329.396 76.956C331.256 74.6159 332.193 71.6211 332.209 67.9717C332.209 67.9415 332.209 67.9113 332.209 67.881C332.209 66.2475 332.058 63.6158 331.755 59.9858C331.734 59.7206 331.712 59.4561 331.692 59.1921C331.683 59.0901 331.675 58.9882 331.667 58.8863C331.457 56.2328 331.266 53.6349 331.094 51.0927C331.083 50.9407 331.073 50.7889 331.063 50.6372C331.035 50.2221 331.007 49.8084 330.98 49.3962C330.893 48.0593 330.811 46.7381 330.734 45.4326C330.654 44.0731 330.58 42.7306 330.511 41.4052C330.503 41.2555 330.496 41.106 330.488 40.9567C330.476 40.7219 330.464 40.4877 330.453 40.254C330.362 38.4189 330.281 36.6169 330.212 34.848L316.781 36.663C316.484 37.6135 316.183 38.552 315.878 39.4786C315.211 41.5104 314.528 43.4849 313.83 45.402C313.663 45.8619 313.494 46.3185 313.325 46.7718C312.821 48.1201 312.31 49.4393 311.79 50.7293C311.561 51.289 311.328 51.8483 311.089 52.407C311.049 52.4989 311.01 52.5907 310.97 52.6825C310.486 53.8083 309.98 54.932 309.453 56.0535C309.34 56.2954 309.225 56.5371 309.11 56.7787C308.771 57.4868 308.424 58.194 308.069 58.9004C308.039 58.9601 308.009 59.0198 307.979 59.0794C307.974 59.09 307.968 59.1006 307.963 59.1111C307.823 59.388 307.682 59.6648 307.54 59.9414C307.293 60.4202 307.043 60.8986 306.789 61.3765C306.737 61.4737 306.685 61.5708 306.633 61.6679C306.603 61.7243 306.573 61.7807 306.543 61.8371C306.24 62.4003 305.932 62.9629 305.619 63.525C305.241 63.714 304.88 63.9372 304.536 64.1945C304.499 64.2226 304.461 64.2512 304.424 64.2801C304.389 64.3076 304.354 64.3354 304.319 64.3636C304.265 64.4074 304.211 64.452 304.158 64.4976C304.011 64.6227 303.868 64.7546 303.728 64.8931C303.43 65.1883 303.147 65.514 302.88 65.87C302.664 66.1575 302.458 66.4648 302.261 66.792C302.03 67.1394 301.826 67.5024 301.65 67.881C301.523 68.1534 301.41 68.4339 301.312 68.7225C300.701 69.1578 300.034 69.6033 299.31 70.059C299.15 70.1598 298.987 70.2612 298.822 70.363C298.641 70.4745 298.456 70.5865 298.269 70.6991C298.033 70.8405 297.792 70.9828 297.546 71.1261C297.43 71.1937 297.313 71.2615 297.194 71.3295C297.243 71.1459 297.287 70.9525 297.326 70.7491C297.368 70.5305 297.404 70.3005 297.435 70.059C297.513 69.4387 297.554 68.743 297.557 67.9717C297.557 67.9416 297.557 67.9114 297.557 67.881C297.557 67.6578 297.554 67.4161 297.549 67.1556C297.547 67.0813 297.545 67.0054 297.543 66.928C297.521 66.0882 297.471 65.0695 297.394 63.8719C297.387 63.7604 297.38 63.6473 297.372 63.5327C297.302 62.4809 297.213 61.2986 297.103 59.9858C297.092 59.8415 297.08 59.6974 297.069 59.5535C297.059 59.4329 297.049 59.3124 297.04 59.1921C297.032 59.0901 297.024 58.9882 297.016 58.8863C297.011 58.8324 297.007 58.7785 297.003 58.7246C296.994 58.6129 296.985 58.5012 296.977 58.3897C296.956 58.127 296.936 57.8649 296.915 57.6034C296.908 57.5072 296.9 57.4112 296.893 57.3152C296.81 56.2381 296.73 55.1703 296.654 54.1119C296.605 53.4321 296.557 52.7562 296.51 52.0841C296.487 51.7527 296.464 51.4222 296.442 51.0927C296.432 50.9407 296.421 50.7889 296.411 50.6372C296.392 50.3532 296.373 50.0698 296.354 49.7871C296.346 49.6566 296.337 49.5263 296.329 49.3962C296.242 48.0593 296.159 46.7381 296.083 45.4326C296.003 44.0731 295.928 42.7306 295.86 41.4051C295.852 41.2554 295.844 41.106 295.836 40.9567C295.825 40.7219 295.813 40.4877 295.801 40.254C295.71 38.4189 295.63 36.6169 295.561 34.848L282.13 36.663C281.832 37.6135 281.531 38.552 281.227 39.4786C280.56 41.5104 279.877 43.4849 279.179 45.402C279.011 45.8619 278.843 46.3185 278.673 46.7718C278.17 48.1201 277.658 49.4393 277.138 50.7293C276.997 51.0748 276.854 51.4202 276.709 51.7654C276.579 52.075 276.447 52.3844 276.314 52.6936C275.831 53.8156 275.326 54.9356 274.802 56.0535C274.688 56.2954 274.573 56.5371 274.458 56.7787C274.12 57.4868 273.773 58.194 273.418 58.9004C273.227 59.2789 273.035 59.657 272.84 60.035C272.609 60.4825 272.375 60.9297 272.137 61.3765C272.085 61.4737 272.034 61.5708 271.982 61.6679C271.951 61.7243 271.921 61.7807 271.891 61.8371C271.588 62.4003 271.281 62.9629 270.967 63.525C270.548 63.7347 270.15 63.9864 269.772 64.2801C269.737 64.3076 269.702 64.3354 269.667 64.3636C269.622 64.3998 269.578 64.4366 269.534 64.4741C269.524 64.4819 269.515 64.4897 269.506 64.4976C269.343 64.6371 269.183 64.785 269.028 64.9413C268.897 65.0732 268.77 65.211 268.645 65.3547C268.355 65.6874 268.082 66.0518 267.824 66.448C267.752 66.5601 267.68 66.6748 267.61 66.792C266.964 67.76 266.534 68.849 266.319 70.059C266.31 70.1074 266.302 70.1561 266.294 70.2049C266.272 70.344 266.252 70.4847 266.235 70.6269C266.204 70.8861 266.182 71.1506 266.17 71.4203C266.162 71.5994 266.158 71.7809 266.158 71.9647C266.158 72.069 266.159 72.173 266.162 72.2769C266.166 72.4419 266.174 72.6064 266.186 72.7705C266.136 72.8355 266.085 72.8996 266.034 72.963C265.812 73.2506 265.583 73.5119 265.346 73.7469C265.273 73.8191 265.199 73.8889 265.125 73.9561C264.116 74.867 262.967 75.3225 261.678 75.3225C261.472 75.3225 261.276 75.3136 261.087 75.2958C261.078 75.2949 261.069 75.294 261.059 75.2931C260.7 75.2572 260.371 75.1884 260.074 75.0869C259.435 74.8687 258.941 74.4989 258.591 73.9776C258.555 73.9238 258.521 73.8685 258.488 73.8115C258.202 73.3172 258.031 72.7016 257.976 71.9647C257.967 71.8357 257.961 71.7029 257.958 71.5663C257.957 71.5181 257.957 71.4694 257.957 71.4203C257.957 71.2555 257.96 71.0924 257.966 70.9308C257.967 70.9086 257.968 70.8864 257.969 70.8642C257.971 70.8089 257.974 70.7538 257.977 70.6988C257.98 70.6535 257.983 70.6083 257.986 70.5632C257.997 70.3933 258.013 70.2253 258.031 70.059C258.051 69.8818 258.075 69.7066 258.103 69.5334C258.108 69.5047 258.113 69.476 258.118 69.4474C258.171 69.1303 258.239 68.8199 258.32 68.5163L264.854 37.6613H251.786L250.788 42.471V41.8357C250.788 40.7621 250.427 39.8504 249.707 39.1009C249.494 38.8791 249.249 38.6714 248.973 38.478C248.276 37.9902 247.368 37.6429 246.25 37.436C245.427 37.2837 244.489 37.2075 243.437 37.2075C241.22 37.2075 239.139 37.5605 237.194 38.2664C237.062 38.3143 236.931 38.3638 236.8 38.4149C234.973 39.13 233.268 40.1627 231.686 41.5131C231.66 41.5351 231.634 41.5571 231.609 41.5793C231.312 41.8351 231.02 42.1021 230.732 42.3802C229.004 44.0488 227.481 45.908 226.164 47.958ZM237.002 52.0175C236.3 53.6315 235.692 55.3801 235.179 57.2633C234.998 57.9138 234.833 58.5518 234.683 59.1775C234.676 59.2062 234.669 59.2348 234.662 59.2634C234.517 59.8747 234.385 60.474 234.268 61.0615C234.092 61.9411 233.949 62.7941 233.837 63.6204C233.836 63.625 233.836 63.6296 233.835 63.6342C233.81 63.8211 233.786 64.0066 233.765 64.1907C233.761 64.2182 233.758 64.2456 233.755 64.2731C233.634 65.3127 233.565 66.3087 233.549 67.261C233.546 67.4082 233.545 67.5544 233.545 67.6995C233.545 68.1468 233.554 68.5703 233.573 68.97C233.583 69.194 233.597 69.4105 233.613 69.6195C233.628 69.8185 233.646 70.0108 233.667 70.1963C233.848 71.819 234.231 72.9228 234.816 73.5075C235.723 74.3545 236.812 74.778 238.083 74.778C239.533 74.778 240.956 74.1382 242.35 72.8586C242.41 72.8038 242.47 72.7479 242.529 72.6907C242.855 72.3783 243.158 72.0421 243.438 71.6821C243.505 71.5961 243.571 71.5089 243.636 71.4203C244.399 70.3703 244.983 69.13 245.388 67.6995C245.471 67.4051 245.547 67.1026 245.615 66.792L249.971 46.2825C249.971 45.496 249.668 44.7397 249.063 44.0138C248.965 43.8857 248.858 43.768 248.741 43.6608C248.144 43.1096 247.314 42.834 246.25 42.834C246.139 42.834 246.028 42.837 245.917 42.8431C245.059 42.8899 244.233 43.1187 243.437 43.5295C242.916 43.7986 242.407 44.1458 241.913 44.571C241.362 45.0447 240.827 45.6152 240.309 46.2825C240.109 46.5403 239.911 46.8125 239.716 47.0993C239.379 47.584 239.054 48.0872 238.743 48.6087C238.543 48.944 238.348 49.287 238.158 49.6375C238.108 49.7291 238.059 49.8213 238.01 49.914C238.01 49.9149 238.009 49.9159 238.009 49.9169C237.654 50.5898 237.318 51.29 237.002 52.0175ZM275.13 76.3124C275.182 76.3205 275.235 76.3281 275.288 76.3352C275.667 76.3861 276.073 76.4115 276.503 76.4115C276.806 76.4115 277.103 76.3993 277.392 76.3749C277.53 76.3633 277.665 76.3491 277.8 76.332C277.804 76.3315 277.808 76.331 277.812 76.3304C278.37 76.259 278.901 76.1403 279.407 75.9743C280.19 75.7177 280.91 75.348 281.57 74.8654C281.644 74.8106 281.718 74.7544 281.792 74.6967C281.869 74.6358 281.945 74.5734 282.021 74.5093C282.057 74.4782 282.094 74.4468 282.13 74.415C282.396 74.1807 282.639 73.921 282.858 73.6361C283.161 73.2427 283.419 72.801 283.633 72.3111C283.662 72.2432 283.691 72.1744 283.719 72.1047C283.896 71.6622 284.038 71.1825 284.146 70.6654C284.187 70.4687 284.223 70.2665 284.254 70.059C284.285 69.8498 284.312 69.6351 284.333 69.4149C284.335 69.3909 284.337 69.3668 284.339 69.3426C284.369 69.0127 284.388 68.6707 284.395 68.3165C284.397 68.2028 284.398 68.0879 284.398 67.9717C284.398 67.9537 284.398 67.9355 284.398 67.9173C284.398 67.9052 284.398 67.8931 284.398 67.881C284.397 67.5961 284.392 67.2938 284.382 66.974C284.382 66.9701 284.382 66.9663 284.382 66.9624C284.38 66.9061 284.379 66.8493 284.377 66.792C284.324 65.2688 284.176 63.3659 283.934 61.0832C283.932 61.0711 283.931 61.0589 283.93 61.0467C283.906 60.8179 283.88 60.5852 283.854 60.3488C283.75 59.1657 283.653 58.0494 283.561 56.9999C283.442 55.6251 283.333 54.3649 283.235 53.2192C283.233 53.2073 283.232 53.1953 283.231 53.1834C283.175 52.5244 283.122 51.9035 283.073 51.3207C282.893 49.1964 282.76 47.5776 282.674 46.464C282.406 47.3474 282.103 48.2628 281.767 49.2103C281.43 50.1569 281.06 51.1355 280.656 52.146C280.654 52.1517 280.651 52.1574 280.649 52.1631C280.398 52.7899 280.134 53.4289 279.857 54.0802C279.382 55.1962 278.869 56.3483 278.317 57.5365C278.266 57.6464 278.215 57.7566 278.163 57.8671C277.69 58.8787 277.19 59.9163 276.662 60.9797C276.632 61.0389 276.603 61.0983 276.573 61.1577C276.45 61.4052 276.325 61.654 276.199 61.9042C275.915 62.4676 275.623 63.0382 275.323 63.6157C275.324 63.6161 275.325 63.6164 275.325 63.6167C275.798 63.8638 276.191 64.1494 276.503 64.4734C277.108 65.1016 277.411 65.8745 277.411 66.792C277.411 66.892 277.408 66.9911 277.402 67.0893C277.401 67.0959 277.401 67.1025 277.4 67.1091C277.381 67.405 277.335 67.6925 277.262 67.9717C277.235 68.0741 277.204 68.1754 277.17 68.2755C277.13 68.3934 277.084 68.5097 277.034 68.6245C276.975 68.7594 276.909 68.8921 276.836 69.0227C276.737 69.1981 276.627 69.3696 276.503 69.5373C276.418 69.6525 276.328 69.7659 276.231 69.8775C276.181 69.9402 276.13 70.0007 276.078 70.059C275.681 70.5027 275.226 70.8213 274.712 71.0147C274.699 71.0197 274.686 71.0246 274.672 71.0295C274.511 71.0876 274.345 71.1336 274.173 71.1676C273.932 71.215 273.681 71.2387 273.418 71.2387C273.213 71.2387 273.021 71.2286 272.84 71.2082C272.757 71.1989 272.677 71.1875 272.599 71.1739C272.555 71.1663 272.513 71.1581 272.471 71.1491C272.121 71.0749 271.825 70.9544 271.581 70.7878C271.504 70.7347 271.432 70.6769 271.365 70.6144C271.276 70.8196 271.186 71.022 271.095 71.2216C271.072 71.2727 271.049 71.3237 271.025 71.3745C271.027 71.3898 271.028 71.405 271.03 71.4203C271.041 71.539 271.054 71.6555 271.069 71.7698C271.076 71.8208 271.083 71.8714 271.09 71.9216C271.092 71.936 271.094 71.9504 271.096 71.9647C271.28 73.1997 271.661 74.1678 272.238 74.8687C272.272 74.9068 272.306 74.9442 272.341 74.9809C272.359 75.0002 272.378 75.0193 272.397 75.0382C272.534 75.1762 272.682 75.3038 272.84 75.421C273.019 75.5538 273.212 75.6733 273.418 75.7794C273.912 76.0339 274.482 76.2116 275.13 76.3124ZM306.22 73.7363C306.402 74.1699 306.625 74.5474 306.89 74.8687C306.923 74.9068 306.957 74.9442 306.993 74.9809C307.011 75.0002 307.03 75.0193 307.048 75.0382C307.199 75.1901 307.363 75.3294 307.54 75.4562C307.705 75.575 307.882 75.6828 308.069 75.7794C308.563 76.0339 309.134 76.2116 309.782 76.3124C309.834 76.3205 309.886 76.3281 309.939 76.3352C310.319 76.3861 310.724 76.4115 311.155 76.4115C311.458 76.4115 311.754 76.3993 312.044 76.3749C312.181 76.3633 312.317 76.3491 312.451 76.332C312.455 76.3315 312.46 76.331 312.464 76.3304C312.476 76.3289 312.487 76.3274 312.499 76.3258C313.044 76.2539 313.564 76.1368 314.059 75.9743C314.93 75.6886 315.725 75.2627 316.443 74.6967C316.484 74.6643 316.525 74.6315 316.566 74.5982C316.601 74.5689 316.637 74.5393 316.672 74.5093C316.709 74.4782 316.745 74.4468 316.781 74.415C317.557 73.7326 318.133 72.8355 318.511 71.7237C318.525 71.6837 318.538 71.6434 318.551 71.6029C318.705 71.1266 318.823 70.612 318.906 70.059C318.94 69.8269 318.969 69.5881 318.991 69.3426C319.009 69.1394 319.023 68.9317 319.033 68.7193C319.039 68.5868 319.044 68.4525 319.047 68.3164C319.049 68.2028 319.05 68.0879 319.05 67.9717C319.05 67.9417 319.05 67.9114 319.05 67.881C319.049 67.5961 319.044 67.2938 319.034 66.974C319.032 66.914 319.03 66.8533 319.028 66.792C318.975 65.2688 318.828 63.3659 318.585 61.0832C318.584 61.0711 318.583 61.0589 318.582 61.0467C318.557 60.8179 318.532 60.5852 318.506 60.3488C318.4 59.1437 318.301 58.0079 318.208 56.9413C318.09 55.5893 317.983 54.3486 317.886 53.2192C317.885 53.2073 317.884 53.1953 317.883 53.1834C317.827 52.5244 317.774 51.9035 317.724 51.3207C317.544 49.1964 317.411 47.5776 317.326 46.464C317.057 47.3474 316.755 48.2628 316.418 49.2103C316.082 50.1569 315.712 51.1355 315.307 52.146C315.305 52.1517 315.303 52.1574 315.301 52.1631C315.052 52.7829 314.791 53.4148 314.518 54.0586C314.04 55.1814 313.524 56.3407 312.969 57.5365C312.918 57.6464 312.867 57.7566 312.815 57.8671C312.456 58.6354 312.08 59.4187 311.689 60.2169C311.566 60.4696 311.44 60.7239 311.313 60.9797C311.284 61.0389 311.254 61.0983 311.225 61.1577C311.101 61.4052 310.977 61.654 310.85 61.9042C310.566 62.4676 310.274 63.0382 309.975 63.6157C310.449 63.863 310.842 64.1489 311.155 64.4734C311.76 65.1016 312.062 65.8745 312.062 66.792C312.062 66.892 312.059 66.9911 312.053 67.0893C312.053 67.0959 312.053 67.1025 312.052 67.1091C312.035 67.3731 311.996 67.6303 311.936 67.881C311.929 67.9113 311.921 67.9416 311.913 67.9717C311.855 68.1947 311.779 68.4123 311.686 68.6245C311.547 68.9406 311.37 69.2448 311.155 69.5373C311.098 69.6141 311.039 69.69 310.977 69.7652C310.946 69.8028 310.915 69.8403 310.883 69.8775C310.832 69.9402 310.781 70.0007 310.729 70.059C310.332 70.5027 309.877 70.8213 309.364 71.0147C309.351 71.0197 309.337 71.0246 309.324 71.0295C309.163 71.0876 308.997 71.1336 308.825 71.1676C308.584 71.215 308.332 71.2387 308.069 71.2387C307.982 71.2387 307.897 71.2369 307.814 71.2332C307.72 71.229 307.628 71.2224 307.54 71.2134C307.003 71.159 306.568 71.0171 306.233 70.7878C305.962 70.6022 305.758 70.3592 305.619 70.059C305.619 70.6753 305.653 71.2455 305.721 71.7698C305.729 71.8355 305.738 71.9005 305.748 71.9647C305.847 72.6336 306.005 73.2241 306.22 73.7363Z" fill="white"/>
<defs>
<linearGradient id="paint0_linear_10_3288" x1="172.062" y1="-7.71376" x2="172.062" y2="106.026" gradientUnits="userSpaceOnUse">
<stop stop-color="#FF9900"/>
<stop offset="1" stop-color="#FF00C7"/>
</linearGradient>
<linearGradient id="paint1_linear_10_3288" x1="172.062" y1="-7.71376" x2="172.062" y2="106.026" gradientUnits="userSpaceOnUse">
<stop stop-color="#FF9900"/>
<stop offset="1" stop-color="#FF00C7"/>
</linearGradient>
<linearGradient id="paint2_linear_10_3288" x1="172.062" y1="-7.71376" x2="172.062" y2="106.026" gradientUnits="userSpaceOnUse">
<stop stop-color="#FF9900"/>
<stop offset="1" stop-color="#FF00C7"/>
</linearGradient>
<linearGradient id="paint3_linear_10_3288" x1="172.062" y1="-7.71376" x2="172.062" y2="106.026" gradientUnits="userSpaceOnUse">
<stop stop-color="#FF9900"/>
<stop offset="1" stop-color="#FF00C7"/>
</linearGradient>
<linearGradient id="paint4_linear_10_3288" x1="172.062" y1="-7.71376" x2="172.062" y2="106.026" gradientUnits="userSpaceOnUse">
<stop stop-color="#FF9900"/>
<stop offset="1" stop-color="#FF00C7"/>
</linearGradient>
<linearGradient id="paint5_linear_10_3288" x1="172.062" y1="-7.71376" x2="172.062" y2="106.026" gradientUnits="userSpaceOnUse">
<stop stop-color="#FF9900"/>
<stop offset="1" stop-color="#FF00C7"/>
</linearGradient>
<linearGradient id="paint6_linear_10_3288" x1="172.062" y1="-7.71376" x2="172.062" y2="106.026" gradientUnits="userSpaceOnUse">
<stop stop-color="#FF9900"/>
<stop offset="1" stop-color="#FF00C7"/>
</linearGradient>
<linearGradient id="paint7_linear_10_3288" x1="172.062" y1="-7.71376" x2="172.062" y2="106.026" gradientUnits="userSpaceOnUse">
<stop stop-color="#FF9900"/>
<stop offset="1" stop-color="#FF00C7"/>
</linearGradient>
</defs>
</svg>
