<svg width="27" height="31" viewBox="0 0 27 31" fill="none" xmlns="http://www.w3.org/2000/svg">
<path d="M26.3514 1.16227C26.3513 0.981178 26.3088 0.802615 26.2275 0.64082C26.1461 0.479026 26.0281 0.338474 25.8828 0.230371C25.7375 0.122268 25.569 0.0496023 25.3906 0.0181672C25.2123 -0.0132679 25.0291 -0.00260293 24.8556 0.0493116L9.35468 4.69958C9.11515 4.77125 8.90511 4.91823 8.75572 5.11872C8.60633 5.31921 8.52556 5.56252 8.52538 5.81254V21.1228C7.51983 20.4227 6.30689 20.0836 5.08405 20.1607C3.86121 20.2378 2.70047 20.7265 1.79081 21.5474C0.88115 22.3682 0.276137 23.4728 0.0742692 24.6814C-0.127599 25.8899 0.0855654 27.1312 0.679059 28.2031C1.27255 29.275 2.21142 30.1145 3.34282 30.5849C4.47422 31.0552 5.73152 31.1287 6.91002 30.7934C8.08853 30.4582 9.11884 29.7338 9.83321 28.7384C10.5476 27.7429 10.904 26.5349 10.8443 25.3111C10.8485 25.2704 10.8506 25.2295 10.8505 25.1886V12.8778L24.0263 8.92512V18.0241C23.0207 17.324 21.8078 16.9849 20.5849 17.062C19.3621 17.1391 18.2014 17.6279 17.2917 18.4487C16.382 19.2696 15.777 20.3742 15.5752 21.5827C15.3733 22.7913 15.5864 24.0325 16.1799 25.1045C16.7734 26.1764 17.7123 27.0159 18.8437 27.4862C19.9751 27.9566 21.2324 28.0301 22.4109 27.6948C23.5894 27.3595 24.6197 26.6352 25.3341 25.6397C26.0485 24.6443 26.4048 23.4363 26.3452 22.2125C26.3494 22.1713 26.3515 22.1299 26.3514 22.0885V1.16227Z" fill="url(#paint0_linear_65_4966)"/>
<defs>
<linearGradient id="paint0_linear_65_4966" x1="3.7058" y1="0.000517525" x2="30.4802" y2="23.5359" gradientUnits="userSpaceOnUse">
<stop stop-color="#FF9900"/>
<stop offset="1" stop-color="#FF00C7"/>
</linearGradient>
</defs>
</svg>
