<svg width="32" height="32" viewBox="0 0 32 32" fill="none" xmlns="http://www.w3.org/2000/svg">
<path d="M11.0762 12.7177V22.113C10.0716 21.4136 8.85983 21.0748 7.63816 21.1518C6.41649 21.2289 5.25687 21.7172 4.34808 22.5372C3.4393 23.3573 2.83487 24.4608 2.63319 25.6682C2.43152 26.8756 2.64448 28.1157 3.2374 29.1866C3.83033 30.2575 4.7683 31.0961 5.89861 31.566C7.02892 32.0359 8.28501 32.1094 9.46238 31.7744C10.6398 31.4395 11.6691 30.7158 12.3828 29.7213C13.0965 28.7268 13.4525 27.52 13.3929 26.2973C13.3971 26.2567 13.3992 26.2159 13.3991 26.175V15.0406L18.8997 20.5427C18.2331 21.5835 17.9422 22.8208 18.0753 24.0496C18.2084 25.2783 18.7574 26.4247 19.6313 27.2986C20.5052 28.1725 21.6516 28.7216 22.8804 28.8546C24.1091 28.9877 25.3464 28.6968 26.3872 28.0302L29.9985 31.6416C30.2175 31.8532 30.5108 31.9704 30.8153 31.9679C31.1199 31.9654 31.4112 31.8434 31.6267 31.6282C31.8421 31.4129 31.9644 31.1217 31.9672 30.8172C31.97 30.5126 31.853 30.2192 31.6416 30L2.9925 1.35096C2.88617 1.23684 2.75795 1.14532 2.61548 1.08184C2.47301 1.01836 2.31921 0.984225 2.16326 0.981473C2.00731 0.978722 1.85241 1.00741 1.70779 1.06582C1.56317 1.12424 1.43179 1.21118 1.3215 1.32147C1.21121 1.43176 1.12427 1.56314 1.06585 1.70776C1.00744 1.85238 0.978752 2.00728 0.981504 2.16323C0.984256 2.31918 1.01839 2.47298 1.08187 2.61545C1.14535 2.75792 1.23688 2.88614 1.35099 2.99247L11.0762 12.7177ZM23.465 18.0449C23.3055 18.0449 23.1475 18.051 22.9927 18.065L28.8649 23.9373C28.8861 23.6922 28.8908 23.4459 28.8789 23.2001C28.8831 23.1595 28.8851 23.1187 28.8851 23.0778V2.17171C28.885 1.99079 28.8426 1.8124 28.7613 1.65076C28.68 1.48912 28.5621 1.3487 28.4169 1.24071C28.2718 1.13271 28.1034 1.06011 27.9252 1.02871C27.7471 0.9973 27.564 1.00795 27.3907 1.05982L11.9047 5.70562C11.7561 5.74999 11.6178 5.82369 11.4981 5.92237C11.3784 6.02105 11.2797 6.1427 11.2078 6.28015L17.5571 12.6294L26.5622 9.9271V19.0174C25.6541 18.3829 24.5727 18.0434 23.465 18.0449V18.0449Z" fill="url(#paint0_linear_65_4968)"/>
<defs>
<linearGradient id="paint0_linear_65_4968" x1="5.33872" y1="0.981291" x2="32.3212" y2="28.871" gradientUnits="userSpaceOnUse">
<stop stop-color="#CCCBC9"/>
<stop offset="1" stop-color="#878787"/>
</linearGradient>
</defs>
</svg>
