<svg width="42" height="35" viewBox="0 0 42 35" fill="none" xmlns="http://www.w3.org/2000/svg">
<path d="M28.6 10.7189C31.1327 14.1638 31.1327 20.8367 28.6 24.2816M34.3 3.93755C41.8772 11.3157 41.9228 23.7333 34.3 31.0629M2 23.2334V11.7652C2 10.653 2.8512 9.75013 3.9 9.75013H10.7134C10.9648 9.74922 11.2135 9.69639 11.4443 9.59482C11.6752 9.49326 11.8835 9.34507 12.0567 9.15918L17.7567 2.59485C18.9537 1.32383 21 2.22478 21 4.02086V30.9796C21 32.7893 18.929 33.6825 17.7396 32.3862L12.0586 25.8587C11.8849 25.6675 11.6745 25.5149 11.4405 25.4102C11.2064 25.3055 10.9538 25.2511 10.6982 25.2503H3.9C2.8512 25.2503 2 24.3474 2 23.2334Z" stroke="url(#paint0_linear_63_4954)" stroke-width="4" stroke-linecap="round" stroke-linejoin="round"/>
<defs>
<linearGradient id="paint0_linear_63_4954" x1="7.34375" y1="2" x2="33.5994" y2="35.2815" gradientUnits="userSpaceOnUse">
<stop stop-color="#FF9900"/>
<stop offset="1" stop-color="#FF00C7"/>
</linearGradient>
</defs>
</svg>
